<?xml version="1.0" encoding="UTF-8"?>
<svg id="Layer_2" data-name="Layer 2" xmlns="http://www.w3.org/2000/svg" xmlns:xlink="http://www.w3.org/1999/xlink" viewBox="0 0 1493.04 1493.3">
  <defs>
    <style>
      .cls-1 {
        clip-path: url(#clippath);
      }

      .cls-2 {
        clip-path: url(#clippath-1);
      }

      .cls-3 {
        fill: #1a1a1a;
      }

      .cls-3, .cls-4 {
        stroke: #1a1a1a;
        stroke-miterlimit: 10;
      }

      .cls-5 {
        isolation: isolate;
      }

      .cls-4 {
        fill: none;
        stroke-width: .5px;
      }
    </style>
    <clipPath id="clippath">
      <path class="cls-4" d="m530.97,1383.77h0c14.7,48.98,34.66,79.65,59.33,91.17,4.28,2,8.66,3.4,13.15,4.22h0c-12.5-2.67-29.14-6.32-41.56-9.34-7.48-2.04-17.49-4.63-24.93-6.81-8.08-2.37-18.8-5.72-26.79-8.37-7.04-2.48-16.47-5.66-23.46-8.28-7.85-2.94-18.26-7.03-26.01-10.23-6.56-2.85-15.38-6.52-21.88-9.51-8.57-3.94-19.92-9.38-28.37-13.59-6.55-3.44-15.37-7.89-21.85-11.47-8.46-4.68-19.65-11.09-27.95-16.04-10.55-6.59-24.53-15.52-34.86-22.44-6.88-4.61-15.83-11.1-22.52-15.99-9.93-7.55-23.12-17.71-32.76-25.63-8.44-6.94-19.35-16.61-27.5-23.89-8.3-7.8-19.24-18.33-27.34-26.34-4.14-4.09-9.43-9.79-13.46-13.99-4.08-4.26-9.35-10.11-13.27-14.52-4.17-4.69-9.65-11.02-13.69-15.82-6.96-8.5-16.3-19.79-22.84-28.61-3.33-4.49-7.86-10.4-11.07-14.96-6.08-8.64-14.05-20.25-19.92-29.03-2.63-4.14-6.22-9.62-8.78-13.8-4.17-6.82-9.62-15.96-13.64-22.87-2.59-4.64-6.11-10.79-8.63-15.47-2.83-5.24-6.53-12.27-9.24-17.57-3.64-7.23-7.1-14.53-10.38-21.91h0c-2.25-4.94-5.33-11.49-7.52-16.45-2.45-5.56-5.63-13.01-7.94-18.63-2.02-5.09-4.78-11.85-6.73-16.97-2.18-5.73-4.99-13.4-7.03-19.19-3.13-9.29-7.23-21.7-10.14-31.06-2.42-8.09-4.65-16.24-6.7-24.45-1.38-5.42-3.29-12.63-4.58-18.08-1.45-6.07-3.27-14.18-4.55-20.28-1.7-8.41-3.21-16.86-4.53-25.37h0c-1.64-9.84-3.76-22.98-5.15-32.87-1.09-8.96-1.96-17.92-2.63-26.89h0c-.48-5.76-1.21-13.43-1.6-19.2-.44-6.41-.9-14.97-1.16-21.4-.25-9.03-.3-18.06-.13-27.08h0c.04-5.77,0-13.47.12-19.25.14-6.42.45-14.99.78-21.4.58-9.05,1.38-18.09,2.38-27.12h0c.56-5.75,1.22-13.42,1.87-19.16.73-6.39,1.82-14.9,2.73-21.27,1.42-9.02,3.06-18.02,4.9-26.99h0c1.09-5.69,2.45-13.29,3.62-18.95,1.31-6.32,3.19-14.71,4.68-20.99,2.26-8.94,4.73-17.84,7.4-26.72h0c2.8-9.81,6.62-22.87,9.7-32.6,2.98-8.82,6.16-17.55,9.51-26.18h0c2.06-5.41,4.72-12.65,6.86-18.02,2.38-5.97,5.68-13.89,8.23-19.79,3.72-8.43,7.63-16.75,11.72-24.98h0c2.52-5.15,5.81-12.06,8.41-17.17,2.9-5.69,6.87-13.21,9.93-18.81,4.44-7.99,9.06-15.87,13.86-23.64,0-5.7,6.85-11.41,9.89-16.23,3.39-5.37,8.01-12.46,11.55-17.73,5.13-7.51,10.44-14.9,15.92-22.17h0c3.38-4.56,7.82-10.68,11.28-15.19,3.85-5.02,9.07-11.64,13.06-16.54,5.79-6.99,11.75-13.85,17.88-20.58,6.6-7.41,15.45-17.25,22.23-24.49,6.12-6.27,12.36-12.39,18.73-18.36h0c3.96-3.78,9.19-8.89,13.2-12.62,4.46-4.14,10.49-9.59,15.06-13.61,4.14-3.54,9.62-8.33,13.81-11.81,4.66-3.87,10.94-8.96,15.7-12.71,6.72-5.24,13.56-10.32,20.51-15.25h0c4.37-3.14,10.15-7.38,14.56-10.46,4.9-3.42,11.5-7.89,16.49-11.19,4.5-2.89,10.47-6.8,15.01-9.62,5.05-3.14,11.83-7.24,16.95-10.25,4.62-2.63,10.74-6.21,15.4-8.78,5.17-2.85,12.1-6.58,17.34-9.31,7.29-3.76,14.69-7.35,22.18-10.77h0c4.74-2.21,11.03-5.21,15.8-7.36,5.29-2.38,12.39-5.47,17.73-7.72,8.45-3.46,19.73-8.01,28.25-11.29,10.47-3.78,24.49-8.68,35.07-12.17,6.49-2.14,15.24-4.7,21.8-6.59,8.49-2.31,19.81-5.35,28.34-7.49,5.98-1.38,13.93-3.33,19.93-4.6,7.7-1.63,17.99-3.66,25.73-5.07,4.67-.77,10.88-1.86,15.56-2.58,5.14-.78,12-1.75,17.16-2.42,5.81-.7,13.55-1.72,19.37-2.32,7.42-.76,17.32-1.64,24.76-2.2,6.52-.39,15.22-1.05,21.75-1.28,10.08-.36,23.53-.63,33.61-.69,6.34.11,14.79.11,21.13.36,9.7.38,22.62,1.08,32.3,1.74,14.63,1.32,34.13,3.26,48.69,5.23,12.25,1.66,28.48,4.63,40.63,6.9,12.25,2.64,28.57,6.25,40.75,9.24,7.33,2.01,17.14,4.56,24.43,6.71,7.91,2.33,18.41,5.63,26.24,8.24,6.9,2.42,16.14,5.52,23,8.08,7.7,2.87,17.91,6.87,25.51,9.99,6.45,2.78,15.1,6.36,21.49,9.28,8.43,3.85,19.59,9.16,27.89,13.27,6.45,3.37,15.12,7.72,21.5,11.22,8.33,4.58,19.35,10.86,27.53,15.71,10.45,6.44,24.28,15.18,34.52,21.96,6.82,4.52,15.69,10.88,22.32,15.68,9.87,7.42,22.97,17.39,32.55,25.17,8.4,6.82,19.25,16.34,27.36,23.51,8.29,7.68,19.22,18.06,27.31,25.95,4.14,4.04,9.43,9.65,13.46,13.8,4.08,4.2,9.35,9.98,13.27,14.34,4.17,4.63,9.65,10.89,13.7,15.63,6.74,8.1,15.59,19.01,22.13,27.27,3.33,4.2,7.56,9.97,10.76,14.27s7.45,10.22,10.53,14.68c4.23,6.1,9.77,14.31,13.86,20.51,4.98,7.86,11.58,18.38,16.4,26.34,4.1,6.85,8.01,13.78,11.76,20.79,2.53,4.7,5.97,10.94,8.44,15.68,2.77,5.31,6.37,12.43,9.02,17.8,2.32,4.88,5.47,11.35,7.73,16.26,2.52,5.5,5.8,12.86,8.18,18.42,2.08,5.04,4.93,11.73,6.95,16.79,2.25,5.67,5.17,13.27,7.28,18.99,1.83,5.18,4.35,12.07,6.11,17.28,1.97,5.83,4.49,13.64,6.31,19.51,2.51,8.06,4.84,16.18,6.98,24.36,1.41,5.4,3.37,12.58,4.71,18,1.49,6.04,3.36,14.13,4.69,20.21,1.79,8.38,3.4,16.81,4.81,25.3.96,5.55,2.32,12.94,3.2,18.51.98,6.21,2.17,14.5,2.98,20.73.81,6.72,1.51,13.44,2.09,20.16.52,5.75,1.31,13.41,1.75,19.17.48,6.41,1.01,14.96,1.32,21.37.36,9.03.51,18.06.44,27.09h0c0,5.77.11,13.46.02,19.23-.09,6.42-.34,14.98-.61,21.39-.48,9.06-1.17,18.11-2.07,27.14-.52,5.75-1.11,13.42-1.72,19.16-.68,6.39-1.7,14.9-2.56,21.27-1.32,9.03-2.85,18.04-4.58,27.03,0,5.78-2.34,13.29-3.48,18.96-1.26,6.32-3.07,14.72-4.52,21.01-2.16,8.95-4.52,17.87-7.09,26.76,0,5.81-3.56,13.08-5.22,18.64-1.85,6.21-4.42,14.46-6.45,20.61-2.24,6.62-4.58,13.18-7.03,19.69h0c-2.02,5.43-4.63,12.7-6.73,18.09-2.34,6-5.58,13.95-8.09,19.87-3.63,8.48-7.45,16.86-11.45,25.13,0,5.74-5.72,12.12-8.29,17.25-2.86,5.71-6.78,13.28-9.8,18.91-4.35,8.04-8.88,15.98-13.59,23.8-2.93,4.9-6.76,11.47-9.77,16.32-3.35,5.4-7.92,12.53-11.42,17.83-5.04,7.57-10.26,15.02-15.65,22.35h0c-3.35,4.59-7.75,10.75-11.17,15.29-3.81,5.05-8.99,11.72-12.94,16.66-5.7,7.05-11.58,13.97-17.62,20.77h0c-3.74,4.25-8.66,9.98-12.46,14.18-4.24,4.68-9.97,10.83-14.34,15.39-4.59,4.7-9.25,9.32-13.98,13.85-3.94,3.82-9.14,8.98-13.14,12.74-4.44,4.19-10.44,9.69-14.99,13.76-4.12,3.58-9.57,8.42-13.75,11.94-4.64,3.92-10.9,9.06-15.64,12.85-6.66,5.32-13.44,10.48-20.34,15.48h0c-4.35,3.18-10.12,7.47-14.51,10.59-4.89,3.46-11.46,8-16.44,11.34-4.49,2.93-10.44,6.89-14.97,9.76-5.03,3.18-11.8,7.35-16.91,10.4-4.61,2.67-10.72,6.3-15.36,8.92-5.16,2.9-12.08,6.69-17.3,9.46-7.24,3.84-14.59,7.51-22.03,11.02-4.73,2.25-11.02,5.31-15.78,7.5-5.29,2.43-12.37,5.58-17.71,7.88-4.8,1.99-11.17,4.72-15.99,6.65-5.35,2.14-12.51,4.92-17.91,6.94-8.51,3.07-19.87,7.12-28.43,10.02-6,1.9-13.97,4.55-20,6.33-7.77,2.29-18.17,5.2-25.99,7.26-4.79,1.18-11.16,2.82-15.96,3.95-5.29,1.24-12.36,2.81-17.68,3.93-5.97,1.18-13.9,2.85-19.89,3.92-7.66,1.37-17.91,3.05-25.6,4.21-5.89.78-13.74,1.93-19.65,2.61-7.53.87-17.59,1.9-25.14,2.57-5.75.41-13.42,1.06-19.18,1.38-7.31.4-17.07.81-24.39,1.03-6.46.07-15.08.32-21.54.25-9.93-.11-23.16-.45-33.08-.85-14.78-.95-34.51-2.22-49.21-4.01-7.31-.89-17.06-2.08-24.34-3.21-10.18-1.58-23.71-3.9-33.83-5.81-4.49-.82-8.87-2.23-13.15-4.22-24.66-11.51-44.63-42.18-59.33-91.17Zm336.34-1015.66l-37.68-11.56-39-7.5-40-3.47-40.66.55-40.95,4.55-40.74,8.56-39.52,12.65-37.81,16.61-35.67,20.29-33.13,23.79-30.19,27.1-26.88,30.18-23.22,33.05-19.25,35.67-15.01,38.06-10.56,40.22-10.35,39.12-6.18,37.81-2.36,36.36,1.11,34.81,4.24,33.18,7.05,31.51,9.54,29.82,11.76,28.13,13.71,26.43,15.44,24.61,17,22.83,18.43,21.16,19.8,19.59,21.15,18.16,22.55,16.86,23.89,15.69,9.45,5.7,10.02,5.72,10.54,5.68,11.02,5.59,11.47,5.45,11.9,5.26,12.32,5.02,12.74,4.73,13.17,4.39,13.63,4.01,14.12,3.58,14.65,3.11,15.24,2.6,15.89,2.05,16.61,1.45,17.39.81,25.42-.79,25.66-2.49,25.93-4.26,26.21-6.11,26.44-8.07,26.59-10.17,26.62-12.42,26.39-14.71,25.9-17.1,25.16-19.66,24.16-22.37,22.86-25.25,21.25-28.27,19.31-31.42,17.02-34.69,14.74-38.64,10.68-39.58,6.54-39.59,2.5-39.36-1.42-38.87-5.19-38.12-8.8-37.1-12.23-35.82-15.49-34.29-18.58-32.5-21.53-30.38-24.32-28.05-26.95-25.57-29.44-22.93-31.8-20.14-34.07-17.19-36.25-14.07"/>
    </clipPath>
    <clipPath id="clippath-1">
      <path class="cls-4" d="m765.44,1492.79c-10.07.28-23.5.22-33.57.11-6.32-.07-14.74-.5-21.05-.71-10.45-.57-24.36-1.57-34.78-2.49-7.36-.65-17.14-1.86-24.47-2.75-14.52-1.76-33.73-5.22-48.12-7.79,20.52,3.75,43.21-4.76,67.66-25.43,29.8-25.19,60.7-67.17,91.85-124.75,32.25-59.63,63.36-133.48,92.45-219.49,29.1-86.01,54.44-179.04,75.34-276.51,20.18-94.15,35.38-188.45,45.17-280.29,9.79-91.84,13.69-176.58,11.57-251.88-2.19-77.96-10.75-142.32-25.45-191.31,14.7,48.98,23.27,113.35,25.45,191.31,2.11,75.3-1.78,160.04-11.57,251.88-9.79,91.84-24.99,186.14-45.17,280.29-20.89,97.47-46.24,190.5-75.34,276.51-29.1,86.02-60.2,159.86-92.45,219.49-31.15,57.59-62.05,99.56-91.85,124.75-24.45,20.67-47.14,29.18-67.66,25.43-12.51-2.59-29.12-6.41-41.56-9.34-8.36-2.15-19.45-5.2-27.73-7.63-7.24-2.12-16.79-5.28-23.99-7.55-7.89-2.65-18.35-6.36-26.14-9.28-7.05-2.64-16.33-6.46-23.33-9.23-8.55-3.61-19.88-8.59-28.32-12.47-6.64-3.05-15.35-7.44-21.93-10.63-8.54-4.36-19.83-10.36-28.23-14.99-6.55-3.62-15.1-8.76-21.57-12.52-6.75-4.12-15.75-9.65-22.32-14.05-10.64-7.13-24.64-16.92-35.06-24.38-8.44-6.36-19.66-14.88-27.83-21.58-9.92-8.15-22.82-19.42-32.43-27.94-4.38-4.01-10.2-9.38-14.42-13.56-8.23-8.14-19.05-19.14-27.06-27.49-8.22-8.58-18.51-20.63-26.28-29.62-6.49-7.91-15.03-18.56-21.32-26.62-3.43-4.39-7.78-10.42-11.11-14.9-6.74-9.09-15.1-21.67-21.4-31.08-4.29-6.68-9.91-15.65-14.05-22.43-2.58-4.23-5.86-9.97-8.36-14.25-2.94-5.14-6.78-12.05-9.6-17.26-2.54-4.7-5.79-11.05-8.27-15.78-3.64-7.23-7.1-14.53-10.38-21.91-2.57-5.47-5.91-12.81-8.35-18.35-2.2-4.99-4.97-11.71-7.11-16.73-2.31-5.65-5.3-13.22-7.47-18.93-1.96-5.14-4.4-12.06-6.28-17.23-3.18-9.27-7.18-21.72-10.14-31.06-2.42-8.09-4.65-16.24-6.7-24.45-1.6-6.03-3.63-14.09-5.08-20.15-1.3-5.44-2.84-12.75-4.06-18.21-1.7-8.41-3.21-16.86-4.53-25.37-1.7-9.83-3.7-22.99-5.15-32.87-1.09-8.96-1.96-17.92-2.63-26.89-.61-6.41-1.32-14.97-1.75-21.4-.39-5.75-.7-13.44-1.01-19.2-.25-9.03-.3-18.06-.13-27.08-.04-6.43.03-15.01.17-21.45.13-5.76.51-13.44.73-19.2.58-9.05,1.38-18.09,2.38-27.12.54-6.41,1.39-14.96,2.12-21.35.65-5.73,1.74-13.36,2.48-19.08,1.42-9.02,3.06-18.02,4.9-26.99,1.13-6.35,2.76-14.8,4.07-21.12,1.18-5.67,2.96-13.18,4.23-18.83,2.26-8.94,4.73-17.84,7.4-26.72,2.74-9.83,6.68-22.85,9.7-32.6,2.98-8.82,6.16-17.55,9.51-26.18,2.22-6.05,5.29-14.08,7.68-20.07,2.14-5.36,5.19-12.42,7.42-17.75,3.72-8.43,7.63-16.75,11.72-24.98,2.74-5.78,6.5-13.42,9.41-19.12,2.6-5.1,6.26-11.81,8.94-16.87,4.44-7.99,9.06-15.87,13.86-23.64,3.24-5.47,7.66-12.69,11.05-18.06,3.04-4.82,7.27-11.12,10.39-15.89,5.13-7.51,10.44-14.9,15.92-22.17,3.71-5.12,8.75-11.89,12.6-16.91,3.45-4.5,8.22-10.38,11.74-14.83,5.79-6.99,11.75-13.85,17.88-20.58,6.55-7.46,15.49-17.21,22.23-24.49,6.12-6.27,12.36-12.39,18.73-18.36,4.36-4.27,10.26-9.88,14.73-14.04,4.01-3.72,9.47-8.54,13.53-12.19,4.57-4,10.74-9.26,15.41-13.14,4.18-3.47,9.87-7.97,14.11-11.38,6.72-5.24,13.56-10.32,20.51-15.25,4.83-3.55,11.33-8.2,16.25-11.63,4.4-3.07,10.37-7.01,14.81-10.02,4.98-3.27,11.68-7.55,16.74-10.69,4.53-2.81,10.66-6.42,15.22-9.18,5.11-2.99,11.98-6.89,17.17-9.75,4.64-2.56,10.9-5.83,15.57-8.33,7.29-3.76,14.69-7.35,22.18-10.77,5.26-2.51,12.3-5.78,17.62-8.17,4.75-2.14,11.14-4.84,15.92-6.91,8.43-3.5,19.75-7.97,28.25-11.29,6.51-2.42,15.2-5.62,21.8-7.8,10.47-3.46,24.51-7.81,35.08-10.97,8.48-2.35,19.82-5.31,28.34-7.49,7.71-1.86,18.02-4.19,25.77-5.84,5.94-1.26,13.92-2.68,19.88-3.83,5.19-.91,12.12-2.05,17.33-2.85,4.61-.7,10.77-1.5,15.39-2.15,7.49-.97,17.5-2.12,25.02-2.89,5.72-.59,13.38-1.13,19.11-1.62,10.17-.67,23.75-1.35,33.94-1.72,6.42-.23,14.99-.18,21.42-.26,9.87.11,23.03.44,32.89.83,6.17.24,14.38.89,20.54,1.27,12.43,1.06,29.02,2.56,41.38,4.24,14.44,1.96,33.6,5.3,47.94,7.9,12.27,2.56,28.55,6.33,40.75,9.24,8.19,2.12,19.06,5.13,27.17,7.52,7.09,2.09,16.45,5.2,23.49,7.43,7.73,2.59,17.98,6.21,25.62,9.06,6.91,2.58,16.02,6.31,22.88,9.01,8.4,3.51,19.53,8.38,27.82,12.16,6.53,2.98,15.1,7.27,21.56,10.38,8.4,4.26,19.52,10.13,27.78,14.66,6.45,3.54,14.87,8.58,21.25,12.26,6.68,4.03,15.59,9.44,22.09,13.75,10.55,6.99,24.42,16.58,34.75,23.9,8.38,6.24,19.54,14.61,27.65,21.2,9.87,8.02,22.7,19.1,32.27,27.49,4.37,3.95,10.19,9.24,14.4,13.36,8.22,8.02,19.04,18.87,27.04,27.11s18.52,20.37,26.29,29.25c4.58,5.43,10.61,12.74,15.07,18.28,3.34,4.15,7.72,9.73,10.9,14,6.47,8.67,14.9,20.39,21.13,29.23,3.16,4.49,7.13,10.65,10.19,15.22,5.02,7.84,11.55,18.4,16.4,26.34,4.1,6.85,8.01,13.78,11.76,20.79,2.88,5.21,6.63,12.21,9.38,17.49,2.48,4.76,5.65,11.19,8.07,15.99,2.64,5.41,6.08,12.66,8.59,18.13,2.26,4.93,5.13,11.58,7.32,16.54,2.38,5.59,5.47,13.08,7.72,18.73,2.02,5.09,4.56,11.94,6.51,17.05,2.11,5.76,4.82,13.47,6.78,19.27,1.77,5.23,3.95,12.27,5.64,17.52,2.51,8.06,4.84,16.18,6.98,24.36,1.64,6,3.73,14.03,5.22,20.07,1.33,5.42,2.93,12.7,4.18,18.14,1.79,8.38,3.4,16.81,4.81,25.3,1.14,6.18,2.55,14.43,3.53,20.63.88,5.57,1.85,13.02,2.65,18.6.81,6.72,1.51,13.44,2.09,20.16.66,6.4,1.43,14.95,1.91,21.37.44,5.75.81,13.42,1.15,19.18.36,9.03.51,18.06.44,27.09.09,6.43.09,15,0,21.43-.08,5.76-.41,13.44-.58,19.19-.48,9.06-1.17,18.11-2.07,27.14-.49,6.41-1.28,14.95-1.95,21.35-.61,5.73-1.63,13.36-2.33,19.08-1.32,9.03-2.85,18.04-4.58,27.03-1.08,6.35-2.64,14.81-3.91,21.13-1.13,5.67-2.86,13.19-4.08,18.84-2.16,8.95-4.52,17.87-7.09,26.76-1.66,6.26-4,14.56-5.85,20.77-1.66,5.57-4.07,12.94-5.82,18.49-2.24,6.62-4.58,13.18-7.03,19.69-2.17,6.08-5.19,14.14-7.53,20.15-2.1,5.38-5.1,12.47-7.29,17.82-3.63,8.48-7.45,16.86-11.45,25.13-2.7,5.8-6.4,13.49-9.27,19.21-2.56,5.13-6.17,11.87-8.82,16.95-4.35,8.04-8.88,15.98-13.59,23.8-3.2,5.5-7.56,12.76-10.92,18.16-3.01,4.84-7.19,11.19-10.27,15.98-5.04,7.57-10.26,15.02-15.65,22.35-3.67,5.16-8.66,11.96-12.47,17.02-3.42,4.53-8.14,10.45-11.63,14.93-5.7,7.05-11.58,13.97-17.62,20.77-4.11,4.79-9.67,11.1-13.91,15.78-3.8,4.2-9.02,9.65-12.89,13.79-4.59,4.7-9.25,9.32-13.98,13.85-4.34,4.31-10.21,9.98-14.66,14.18-3.99,3.75-9.43,8.62-13.47,12.32-4.55,4.04-10.69,9.36-15.34,13.28-4.16,3.51-10.2,7.66-14.05,11.51-6.66,5.32-13.44,10.48-20.34,15.48-4.81,3.59-11.29,8.31-16.19,11.78-4.39,3.11-10.33,7.11-14.76,10.15-4.97,3.32-11.65,7.65-16.7,10.85-4.52,2.86-10.63,6.52-15.18,9.31-5.1,3.03-11.95,7-17.13,9.91-4.63,2.6-10.88,5.93-15.54,8.47-7.24,3.84-14.59,7.51-22.03,11.02-5.25,2.56-12.29,5.9-17.59,8.33-4.74,2.18-11.13,4.94-15.9,7.05-5.32,2.28-12.45,5.23-17.83,7.38-4.8,1.92-11.25,4.34-16.07,6.2-8.49,3.11-19.88,7.08-28.43,10.02-7.73,2.54-18.09,5.76-25.89,8.07-6,1.77-14.08,3.87-20.11,5.52-5.32,1.37-12.43,3.12-17.78,4.37-4.74,1.11-11.1,2.45-15.86,3.5-7.69,1.59-17.98,3.58-25.72,4.96-5.92,1.06-13.85,2.22-19.78,3.17-7.6,1.08-17.75,2.39-25.38,3.27-5.81.67-13.59,1.33-19.41,1.91-7.42.6-17.32,1.27-24.75,1.68-5.64.31-13.17.56-18.81.72Z"/>
    </clipPath>
  </defs>
  <g id="Outline">
    <g id="Outline-2" data-name="Outline">
      <g id="Symbol">
        <g id="Wireframe">
          <g class="cls-5">
            <g class="cls-5">
              <g class="cls-1">
                <g class="cls-5">
                  <g>
                    <path class="cls-4" d="m987.49,300.8c2.11,75.3-1.78,160.04-11.57,251.88-275.72-54.1-533.72-212.83-576.25-354.54,84.64-45.79,175.68-76.91,270.61-92.51,23.41,78,165.43,165.38,317.21,195.16Z"/>
                    <path class="cls-4" d="m987.6,379.16c-196.59-38.57-380.54-151.75-410.86-252.78"/>
                    <path class="cls-4" d="m983.74,463.29c-237.99-46.7-460.68-183.71-497.39-306.02"/>
                    <path class="cls-4" d="m843,254.3c-42.09,61.07-85.68,133.04-129.57,213.91"/>
                    <path class="cls-4" d="m729.2,184.29c-76.91,39.65-151.76,92.38-222.5,156.73"/>
                  </g>
                  <g>
                    <path class="cls-4" d="m670.28,105.64c-94.93,15.59-185.98,46.71-270.61,92.51C357.14,56.44,546.18-14.57,821.9,39.53c29.8-25.19,56.98-32.32,80.81-21.2-151.78-29.78-255.84,9.31-232.43,87.31Z"/>
                    <path class="cls-4" d="m576.74,126.38c-30.32-101.03,104.46-151.67,301.05-113.09"/>
                    <path class="cls-4" d="m486.35,157.28c-36.71-122.31,126.46-183.61,364.45-136.91"/>
                    <path class="cls-4" d="m686.41,41.72c-90-3.96-176.61,9.59-257.44,40.3"/>
                    <path class="cls-4" d="m769.79,10.39c-64.49-13.55-128.19-8.59-189.35,14.72"/>
                  </g>
                  <g>
                    <path class="cls-4" d="m902.71,18.33c-23.82-11.12-51.01-3.99-80.81,21.2,275.72,54.1,533.72,212.83,576.25,354.54-45.05-71.24-105.01-131.99-178.23-180.58-23.41-78-165.43-165.38-317.21-195.16Z"/>
                    <path class="cls-4" d="m877.79,13.28c196.59,38.57,380.54,151.75,410.86,252.78"/>
                    <path class="cls-4" d="m850.8,20.36c237.99,46.7,460.68,183.71,497.39,306.02"/>
                    <path class="cls-4" d="m1047.2,64.83c20.38,3.11,32.89,23.01,37.19,59.17"/>
                    <path class="cls-4" d="m1161,134.84c55.19,24.52,98.97,63.67,130.12,116.35"/>
                  </g>
                  <g>
                    <path class="cls-4" d="m1219.92,213.49c73.22,48.59,133.19,109.34,178.23,180.58,42.53,141.7-146.51,212.72-422.23,158.62,9.79-91.84,13.69-176.58,11.57-251.88,151.78,29.78,255.84-9.31,232.43-87.31Z"/>
                    <path class="cls-4" d="m1288.66,266.07c30.32,101.03-104.46,151.67-301.05,113.09"/>
                    <path class="cls-4" d="m1348.19,326.38c36.71,122.31-126.46,183.61-364.45,136.91"/>
                    <path class="cls-4" d="m1203.79,277.41c68.29,68.14,123.82,146.46,165.06,232.78"/>
                    <path class="cls-4" d="m1120.41,308.74c42.78,77.72,75.4,164.65,96.97,258.36"/>
                  </g>
                  <g>
                    <path class="cls-4" d="m975.92,552.68c-9.79,91.84-24.99,186.14-45.17,280.29-359.29-70.5-695.48-277.34-750.9-461.99,61.23-68.89,135.19-127.04,219.82-172.83,42.53,141.7,300.52,300.43,576.25,354.54Z"/>
                    <path class="cls-4" d="m964.34,645.24c-308.94-60.62-598.01-238.47-645.67-397.25"/>
                    <path class="cls-4" d="m949.25,738.87c-336.85-66.1-652.05-260.02-704-433.14"/>
                    <path class="cls-4" d="m713.43,468.21c-43.89,80.87-85.85,166.55-124.73,254.69"/>
                    <path class="cls-4" d="m506.7,341.02c-70.74,64.35-133.78,137.07-187.38,216.14"/>
                  </g>
                  <g>
                    <path class="cls-4" d="m399.67,198.15c-84.64,45.79-158.59,103.94-219.82,172.83-55.42-184.65,190.92-277.19,550.21-206.69,31.15-57.59,62.05-99.57,91.85-124.76-275.72-54.1-464.76,16.91-422.23,158.62Z"/>
                    <path class="cls-4" d="m318.67,248C271.02,89.22,482.83,9.65,791.77,70.27"/>
                    <path class="cls-4" d="m245.24,305.73C193.29,132.61,424.24,45.85,761.09,111.94"/>
                    <path class="cls-4" d="m428.96,82.02c-80.83,30.71-151.8,77.02-210.94,137.64"/>
                    <path class="cls-4" d="m580.44,25.12c-61.16,23.32-116.68,63.83-165.03,120.39"/>
                  </g>
                  <g>
                    <path class="cls-4" d="m821.9,39.53c-29.8,25.19-60.7,67.17-91.85,124.76,359.29,70.5,695.48,277.34,750.9,461.99-9.9-82.85-37.75-160.97-82.8-232.21-42.53-141.7-300.52-300.43-576.25-354.54Z"/>
                    <path class="cls-4" d="m791.77,70.27c308.94,60.62,598.01,238.47,645.67,397.25"/>
                    <path class="cls-4" d="m761.09,111.94c336.85,66.1,652.05,260.02,704,433.14"/>
                    <path class="cls-4" d="m1084.39,124c4.3,36.16.16,86.75-12.29,150.36"/>
                    <path class="cls-4" d="m1291.12,251.19c31.15,52.68,48.09,116.24,50.36,188.91"/>
                  </g>
                  <g>
                    <path class="cls-4" d="m1398.15,394.06c45.05,71.24,72.9,149.36,82.8,232.21,55.42,184.65-190.92,277.19-550.21,206.69,20.18-94.15,35.38-188.45,45.17-280.29,275.72,54.1,464.76-16.91,422.23-158.62Z"/>
                    <path class="cls-4" d="m1437.44,467.52c47.65,158.77-164.16,238.35-473.1,177.73"/>
                    <path class="cls-4" d="m1465.1,545.08c51.96,173.12-178.99,259.88-515.85,193.79"/>
                    <path class="cls-4" d="m1368.86,510.19c41.24,86.32,66.11,176.29,73.92,267.41"/>
                    <path class="cls-4" d="m1217.38,567.09c21.57,93.71,30.99,189.48,28.01,284.66"/>
                  </g>
                  <g>
                    <path class="cls-4" d="m930.74,832.97c-20.89,97.47-46.24,190.5-75.34,276.51C465.48,1032.97,100.62,808.49,40.47,608.09c29.1-86.01,75.99-165.79,139.37-237.11,55.42,184.65,391.61,391.49,750.9,461.99Z"/>
                    <path class="cls-4" d="m908.39,928.86c-376.27-73.83-728.35-290.44-786.38-483.82"/>
                    <path class="cls-4" d="m883.23,1021.22c-386.5-75.84-748.16-298.34-807.77-496.98"/>
                    <path class="cls-4" d="m588.7,722.89c-40.25,91.24-75.41,181.11-104.51,267.13"/>
                    <path class="cls-4" d="m319.31,557.16c-55.49,81.86-98.38,166.98-127.48,252.99"/>
                  </g>
                  <g>
                    <path class="cls-4" d="m179.85,370.98c-63.39,71.33-110.28,151.1-139.37,237.11-60.14-200.4,207.2-300.83,597.13-224.32,29.1-86.01,60.2-159.86,92.45-219.49C370.76,93.79,124.43,186.33,179.85,370.98Z"/>
                    <path class="cls-4" d="m122.01,445.04c-58.04-193.38,199.94-290.29,576.21-216.46"/>
                    <path class="cls-4" d="m75.45,524.24c-59.62-198.64,205.38-298.19,591.88-222.35"/>
                    <path class="cls-4" d="m218.02,219.66c-61.23,62.76-107.02,138.2-136.12,224.21"/>
                    <path class="cls-4" d="m415.41,145.51c-50.06,58.57-90.19,131.88-119.29,217.89"/>
                  </g>
                  <g>
                    <path class="cls-4" d="m730.05,164.29c-32.25,59.63-63.36,133.48-92.45,219.49,389.93,76.51,754.79,300.99,814.93,501.39,29.1-86.01,38.66-173.11,28.42-258.89-55.42-184.65-391.61-391.49-750.9-461.99Z"/>
                    <path class="cls-4" d="m698.22,228.58c376.27,73.83,728.35,290.44,786.38,483.82"/>
                    <path class="cls-4" d="m667.34,301.89c386.5,75.84,748.16,298.34,807.77,496.98"/>
                    <path class="cls-4" d="m1072.1,274.36c-12.89,65.86-34.19,142.86-63.28,228.87"/>
                    <path class="cls-4" d="m1341.49,440.1c2.35,75.24-11.21,157-40.31,243.01"/>
                  </g>
                  <g>
                    <path class="cls-4" d="m1480.95,626.28c10.24,85.77.68,172.88-28.42,258.89,60.14,200.4-207.2,300.83-597.13,224.32,29.1-86.01,54.44-179.04,75.34-276.51,359.29,70.5,605.63-22.04,550.21-206.69Z"/>
                    <path class="cls-4" d="m1484.6,712.4c58.04,193.38-199.94,290.29-576.21,216.46"/>
                    <path class="cls-4" d="m1475.11,798.88c59.62,198.64-205.38,298.19-591.88,222.35"/>
                    <path class="cls-4" d="m1442.78,777.6c8.08,94.34-2.58,185.78-31.67,271.79"/>
                    <path class="cls-4" d="m1245.39,851.75c-3.09,98.53-19.41,192.1-48.51,278.11"/>
                  </g>
                  <g>
                    <path class="cls-4" d="m855.41,1109.48c-29.1,86.02-60.2,159.86-92.45,219.49C403.66,1258.48,67.47,1051.64,12.05,866.99c-10.24-85.77-.68-172.88,28.42-258.89,60.14,200.4,425,424.88,814.93,501.39Z"/>
                    <path class="cls-4" d="m825.67,1191.36C439.17,1115.53,77.51,893.02,17.9,694.38"/>
                    <path class="cls-4" d="m794.79,1264.68C418.52,1190.85,66.44,974.24,8.4,780.86"/>
                    <path class="cls-4" d="m484.19,990.02c-29.1,86.02-50.39,163.02-63.29,228.88"/>
                    <path class="cls-4" d="m191.83,810.15c-29.1,86.02-42.66,167.78-40.31,243.01"/>
                  </g>
                  <g>
                    <path class="cls-4" d="m40.47,608.09C11.38,694.11,1.81,781.21,12.05,866.99c-55.42-184.65,190.92-277.19,550.21-206.69,20.89-97.47,46.24-190.5,75.34-276.52C247.67,307.26-19.67,407.7,40.47,608.09Z"/>
                    <path class="cls-4" d="m17.9,694.38c-59.62-198.64,205.38-298.19,591.88-222.35"/>
                    <path class="cls-4" d="m8.4,780.86c-58.04-193.38,199.94-290.29,576.21-216.46"/>
                    <path class="cls-4" d="m81.9,443.87c-29.1,86.02-39.76,177.46-31.67,271.8"/>
                    <path class="cls-4" d="m296.12,363.39c-29.1,86.02-45.42,179.59-48.51,278.12"/>
                  </g>
                  <g>
                    <path class="cls-4" d="m637.6,383.77c-29.1,86.02-54.45,179.05-75.34,276.52,359.29,70.5,695.48,277.34,750.9,461.99,63.39-71.33,110.28-151.1,139.38-237.12-60.14-200.4-425-424.88-814.93-501.39Z"/>
                    <path class="cls-4" d="m609.78,472.03c386.5,75.84,748.16,298.34,807.77,496.98"/>
                    <path class="cls-4" d="m584.61,564.4c376.27,73.83,728.35,290.44,786.38,483.82"/>
                    <path class="cls-4" d="m1008.82,503.24c-29.1,86.02-64.26,175.89-104.51,267.13"/>
                    <path class="cls-4" d="m1301.17,683.11c-29.1,86.02-71.99,171.14-127.48,253"/>
                  </g>
                  <g>
                    <path class="cls-4" d="m1452.53,885.16c-29.1,86.02-75.99,165.79-139.38,237.12,55.42,184.65-190.92,277.19-550.21,206.69,32.25-59.63,63.36-133.48,92.45-219.49,389.93,76.51,657.27-23.92,597.13-224.32Z"/>
                    <path class="cls-4" d="m1417.55,969.02c59.62,198.64-205.38,298.19-591.88,222.35"/>
                    <path class="cls-4" d="m1371,1048.22c58.04,193.38-199.94,290.29-576.21,216.46"/>
                    <path class="cls-4" d="m1411.1,1049.39c-29.1,86.02-74.89,161.45-136.12,224.22"/>
                    <path class="cls-4" d="m1196.88,1129.86c-29.1,86.02-69.23,159.33-119.29,217.89"/>
                  </g>
                  <g>
                    <path class="cls-4" d="m762.95,1328.97c-31.15,57.59-62.05,99.56-91.85,124.75-275.72-54.1-533.72-212.83-576.25-354.54-45.05-71.24-72.9-149.36-82.8-232.21,55.42,184.65,391.61,391.49,750.9,461.99Z"/>
                    <path class="cls-4" d="m731.92,1381.31C395.06,1315.22,79.87,1121.3,27.91,948.18"/>
                    <path class="cls-4" d="m701.24,1422.99c-308.94-60.62-598.01-238.47-645.67-397.25"/>
                    <path class="cls-4" d="m420.91,1218.9c-12.45,63.6-16.59,114.19-12.29,150.35"/>
                    <path class="cls-4" d="m151.52,1053.16c2.28,72.66,19.22,136.22,50.36,188.9"/>
                  </g>
                  <g>
                    <path class="cls-4" d="m12.05,866.99c9.9,82.84,37.76,160.97,82.8,232.21-42.53-141.7,146.51-212.72,422.23-158.62,9.79-91.84,24.99-186.14,45.17-280.28C202.97,589.79-43.36,682.33,12.05,866.99Z"/>
                    <path class="cls-4" d="m27.91,948.18c-51.96-173.12,178.99-259.88,515.85-193.79"/>
                    <path class="cls-4" d="m55.57,1025.74c-47.65-158.77,164.16-238.35,473.1-177.73"/>
                    <path class="cls-4" d="m50.23,715.66c7.81,91.12,32.68,181.08,73.92,267.4"/>
                    <path class="cls-4" d="m247.62,641.51c-2.98,95.17,6.45,190.94,28.01,284.65"/>
                  </g>
                  <g>
                    <path class="cls-4" d="m562.26,660.29c-20.18,94.14-35.38,188.44-45.17,280.28,275.72,54.1,533.72,212.83,576.25,354.54,84.64-45.79,158.59-103.94,219.82-172.83-55.42-184.65-391.61-391.49-750.9-461.99Z"/>
                    <path class="cls-4" d="m543.76,754.39c336.85,66.1,652.05,260.02,704,433.14"/>
                    <path class="cls-4" d="m528.67,848.01c308.94,60.62,598.01,238.47,645.67,397.25"/>
                    <path class="cls-4" d="m904.31,770.37c-38.88,88.12-80.84,173.81-124.73,254.68"/>
                    <path class="cls-4" d="m1173.69,936.11c-53.6,79.06-116.65,151.78-187.38,216.13"/>
                  </g>
                  <g>
                    <path class="cls-4" d="m1313.16,1122.28c-61.23,68.89-135.18,127.04-219.82,172.83,42.53,141.7-146.51,212.72-422.23,158.62,29.8-25.19,60.7-67.17,91.85-124.75,359.29,70.5,605.63-22.04,550.21-206.69Z"/>
                    <path class="cls-4" d="m1247.76,1187.53c51.96,173.12-178.99,259.88-515.85,193.79"/>
                    <path class="cls-4" d="m1174.34,1245.26c47.65,158.77-164.16,238.35-473.1,177.73"/>
                    <path class="cls-4" d="m1274.98,1273.6c-59.14,60.61-130.11,106.92-210.94,137.63"/>
                    <path class="cls-4" d="m1077.6,1347.75c-48.35,56.56-103.87,97.07-165.03,120.39"/>
                  </g>
                  <g>
                    <path class="cls-4" d="m671.1,1453.73c-29.8,25.19-56.98,32.33-80.81,21.21-151.78-29.78-293.8-117.16-317.21-195.16-73.22-48.59-133.18-109.34-178.23-180.58,42.53,141.7,300.52,300.43,576.25,354.54Z"/>
                    <path class="cls-4" d="m642.2,1472.89c-237.99-46.7-460.68-183.71-497.39-306.02"/>
                    <path class="cls-4" d="m615.21,1479.98c-196.59-38.57-380.54-151.75-410.86-252.78"/>
                    <path class="cls-4" d="m408.61,1369.26c4.3,36.16,16.81,56.07,37.19,59.18"/>
                    <path class="cls-4" d="m201.88,1242.07c31.15,52.68,74.92,91.83,130.12,116.36"/>
                  </g>
                  <g>
                    <path class="cls-4" d="m94.86,1099.19c45.05,71.24,105.01,132,178.23,180.58-23.41-78,80.65-117.1,232.43-87.31-2.11-75.3,1.78-160.05,11.58-251.88-275.72-54.1-464.76,16.91-422.23,158.62Z"/>
                    <path class="cls-4" d="m144.82,1166.87c-36.71-122.31,126.46-183.61,364.45-136.91"/>
                    <path class="cls-4" d="m204.35,1227.19c-30.32-101.03,104.46-151.67,301.05-113.09"/>
                    <path class="cls-4" d="m124.15,983.07c41.24,86.32,96.78,164.64,165.06,232.78"/>
                    <path class="cls-4" d="m275.63,926.16c21.57,93.71,54.19,180.64,96.97,258.36"/>
                  </g>
                  <g>
                    <path class="cls-4" d="m517.09,940.57c-9.79,91.84-13.69,176.59-11.58,251.88,151.78,29.78,293.8,117.16,317.21,195.16,94.93-15.59,185.98-46.72,270.61-92.51-42.53-141.7-300.52-300.43-576.25-354.54Z"/>
                    <path class="cls-4" d="m509.27,1029.96c237.99,46.7,460.68,183.71,497.39,306.02"/>
                    <path class="cls-4" d="m505.4,1114.1c196.59,38.57,380.54,151.75,410.86,252.78"/>
                    <path class="cls-4" d="m779.58,1025.05c-43.89,80.87-87.48,152.84-129.57,213.91"/>
                    <path class="cls-4" d="m986.31,1152.24c-70.74,64.35-145.6,117.08-222.5,156.74"/>
                  </g>
                  <g>
                    <path class="cls-4" d="m1093.34,1295.11c-84.64,45.79-175.69,76.92-270.61,92.51,23.41,78-80.65,117.1-232.43,87.31,23.82,11.12,51.01,3.98,80.81-21.21,275.72,54.1,464.76-16.91,422.23-158.62Z"/>
                    <path class="cls-4" d="m1006.66,1335.98c36.71,122.31-126.46,183.61-364.45,136.91"/>
                    <path class="cls-4" d="m916.26,1366.88c30.32,101.03-104.46,151.67-301.05,113.09"/>
                    <path class="cls-4" d="m1064.04,1411.23c-80.83,30.71-167.45,44.27-257.45,40.31"/>
                    <path class="cls-4" d="m912.57,1468.14c-61.16,23.32-124.87,28.28-189.35,14.73"/>
                  </g>
                  <g>
                    <path class="cls-4" d="m590.29,1474.94c-24.66-11.51-44.63-42.18-59.33-91.17-95.31-18.7-182.08-53.69-257.88-103.99,23.41,78,165.43,165.38,317.21,195.16Z"/>
                    <path class="cls-4" d="m567.22,1457.07c-102.76-20.16-198.91-79.32-214.76-132.13"/>
                    <path class="cls-4" d="m547.4,1426.62c-52.06-10.22-100.78-40.19-108.81-66.94"/>
                    <path class="cls-4" d="m445.8,1428.44c21.1,3.21,49.75-11.81,85.17-44.67"/>
                    <path class="cls-4" d="m332,1358.42c57.14,25.39,124.09,33.92,198.96,25.35"/>
                  </g>
                  <g>
                    <path class="cls-4" d="m273.09,1279.77c75.8,50.3,162.57,85.29,257.88,103.99-14.7-48.98-23.26-113.35-25.45-191.31-151.78-29.78-255.84,9.31-232.43,87.31Z"/>
                    <path class="cls-4" d="m352.46,1324.93c-15.85-52.81,54.6-79.28,157.36-59.12"/>
                    <path class="cls-4" d="m438.59,1359.67c-8.03-26.76,27.66-40.17,79.73-29.95"/>
                    <path class="cls-4" d="m289.21,1215.85c70.7,70.55,152.04,127.05,241.75,167.92"/>
                    <path class="cls-4" d="m372.6,1184.53c44.29,80.47,97.57,147.51,158.37,199.24"/>
                  </g>
                  <g>
                    <path class="cls-4" d="m505.52,1192.46c2.19,77.96,10.75,142.32,25.45,191.31,95.31,18.7,193.47,20,291.76,3.85-23.41-78-165.43-165.38-317.21-195.16Z"/>
                    <path class="cls-4" d="m509.82,1265.82c102.76,20.16,198.91,79.32,214.76,132.13"/>
                    <path class="cls-4" d="m518.32,1329.72c52.06,10.22,100.78,40.19,108.81,66.94"/>
                    <path class="cls-4" d="m650.01,1238.96c-43.58,63.23-83.63,111.95-119.04,144.81"/>
                    <path class="cls-4" d="m763.81,1308.97c-79.62,41.05-157.96,66.22-232.84,74.79"/>
                  </g>
                  <g>
                    <path class="cls-4" d="m822.72,1387.62c-98.28,16.14-196.44,14.85-291.76-3.85,14.7,48.98,34.66,79.65,59.33,91.17,151.78,29.78,255.84-9.31,232.43-87.31Z"/>
                    <path class="cls-4" d="m724.58,1397.95c15.85,52.81-54.6,79.28-157.36,59.12"/>
                    <path class="cls-4" d="m627.13,1396.66c8.03,26.76-27.66,40.17-79.73,29.95"/>
                    <path class="cls-4" d="m806.6,1451.54c-93.17-4.1-185.91-26.91-275.63-67.78"/>
                    <path class="cls-4" d="m723.21,1482.87c-66.76-14.03-131.45-47.37-192.25-99.1"/>
                  </g>
                </g>
                <path class="cls-4" d="m530.97,1383.77h0c14.7,48.98,34.66,79.65,59.33,91.17,4.28,2,8.66,3.4,13.15,4.22h0c-12.5-2.67-29.14-6.32-41.56-9.34-7.48-2.04-17.49-4.63-24.93-6.81-8.08-2.37-18.8-5.72-26.79-8.37-7.04-2.48-16.47-5.66-23.46-8.28-7.85-2.94-18.26-7.03-26.01-10.23-6.56-2.85-15.38-6.52-21.88-9.51-8.57-3.94-19.92-9.38-28.37-13.59-6.55-3.44-15.37-7.89-21.85-11.47-8.46-4.68-19.65-11.09-27.95-16.04-10.55-6.59-24.53-15.52-34.86-22.44-6.88-4.61-15.83-11.1-22.52-15.99-9.93-7.55-23.12-17.71-32.76-25.63-8.44-6.94-19.35-16.61-27.5-23.89-8.3-7.8-19.24-18.33-27.34-26.34-4.14-4.09-9.43-9.79-13.46-13.99-4.08-4.26-9.35-10.11-13.27-14.52-4.17-4.69-9.65-11.02-13.69-15.82-6.96-8.5-16.3-19.79-22.84-28.61-3.33-4.49-7.86-10.4-11.07-14.96-6.08-8.64-14.05-20.25-19.92-29.03-2.63-4.14-6.22-9.62-8.78-13.8-4.17-6.82-9.62-15.96-13.64-22.87-2.59-4.64-6.11-10.79-8.63-15.47-2.83-5.24-6.53-12.27-9.24-17.57-3.64-7.23-7.1-14.53-10.38-21.91h0c-2.25-4.94-5.33-11.49-7.52-16.45-2.45-5.56-5.63-13.01-7.94-18.63-2.02-5.09-4.78-11.85-6.73-16.97-2.18-5.73-4.99-13.4-7.03-19.19-3.13-9.29-7.23-21.7-10.14-31.06-2.42-8.09-4.65-16.24-6.7-24.45-1.38-5.42-3.29-12.63-4.58-18.08-1.45-6.07-3.27-14.18-4.55-20.28-1.7-8.41-3.21-16.86-4.53-25.37h0c-1.64-9.84-3.76-22.98-5.15-32.87-1.09-8.96-1.96-17.92-2.63-26.89h0c-.48-5.76-1.21-13.43-1.6-19.2-.44-6.41-.9-14.97-1.16-21.4-.25-9.03-.3-18.06-.13-27.08h0c.04-5.77,0-13.47.12-19.25.14-6.42.45-14.99.78-21.4.58-9.05,1.38-18.09,2.38-27.12h0c.56-5.75,1.22-13.42,1.87-19.16.73-6.39,1.82-14.9,2.73-21.27,1.42-9.02,3.06-18.02,4.9-26.99h0c1.09-5.69,2.45-13.29,3.62-18.95,1.31-6.32,3.19-14.71,4.68-20.99,2.26-8.94,4.73-17.84,7.4-26.72h0c2.8-9.81,6.62-22.87,9.7-32.6,2.98-8.82,6.16-17.55,9.51-26.18h0c2.06-5.41,4.72-12.65,6.86-18.02,2.38-5.97,5.68-13.89,8.23-19.79,3.72-8.43,7.63-16.75,11.72-24.98h0c2.52-5.15,5.81-12.06,8.41-17.17,2.9-5.69,6.87-13.21,9.93-18.81,4.44-7.99,9.06-15.87,13.86-23.64,0-5.7,6.85-11.41,9.89-16.23,3.39-5.37,8.01-12.46,11.55-17.73,5.13-7.51,10.44-14.9,15.92-22.17h0c3.38-4.56,7.82-10.68,11.28-15.19,3.85-5.02,9.07-11.64,13.06-16.54,5.79-6.99,11.75-13.85,17.88-20.58,6.6-7.41,15.45-17.25,22.23-24.49,6.12-6.27,12.36-12.39,18.73-18.36h0c3.96-3.78,9.19-8.89,13.2-12.62,4.46-4.14,10.49-9.59,15.06-13.61,4.14-3.54,9.62-8.33,13.81-11.81,4.66-3.87,10.94-8.96,15.7-12.71,6.72-5.24,13.56-10.32,20.51-15.25h0c4.37-3.14,10.15-7.38,14.56-10.46,4.9-3.42,11.5-7.89,16.49-11.19,4.5-2.89,10.47-6.8,15.01-9.62,5.05-3.14,11.83-7.24,16.95-10.25,4.62-2.63,10.74-6.21,15.4-8.78,5.17-2.85,12.1-6.58,17.34-9.31,7.29-3.76,14.69-7.35,22.18-10.77h0c4.74-2.21,11.03-5.21,15.8-7.36,5.29-2.38,12.39-5.47,17.73-7.72,8.45-3.46,19.73-8.01,28.25-11.29,10.47-3.78,24.49-8.68,35.07-12.17,6.49-2.14,15.24-4.7,21.8-6.59,8.49-2.31,19.81-5.35,28.34-7.49,5.98-1.38,13.93-3.33,19.93-4.6,7.7-1.63,17.99-3.66,25.73-5.07,4.67-.77,10.88-1.86,15.56-2.58,5.14-.78,12-1.75,17.16-2.42,5.81-.7,13.55-1.72,19.37-2.32,7.42-.76,17.32-1.64,24.76-2.2,6.52-.39,15.22-1.05,21.75-1.28,10.08-.36,23.53-.63,33.61-.69,6.34.11,14.79.11,21.13.36,9.7.38,22.62,1.08,32.3,1.74,14.63,1.32,34.13,3.26,48.69,5.23,12.25,1.66,28.48,4.63,40.63,6.9,12.25,2.64,28.57,6.25,40.75,9.24,7.33,2.01,17.14,4.56,24.43,6.71,7.91,2.33,18.41,5.63,26.24,8.24,6.9,2.42,16.14,5.52,23,8.08,7.7,2.87,17.91,6.87,25.51,9.99,6.45,2.78,15.1,6.36,21.49,9.28,8.43,3.85,19.59,9.16,27.89,13.27,6.45,3.37,15.12,7.72,21.5,11.22,8.33,4.58,19.35,10.86,27.53,15.71,10.45,6.44,24.28,15.18,34.52,21.96,6.82,4.52,15.69,10.88,22.32,15.68,9.87,7.42,22.97,17.39,32.55,25.17,8.4,6.82,19.25,16.34,27.36,23.51,8.29,7.68,19.22,18.06,27.31,25.95,4.14,4.04,9.43,9.65,13.46,13.8,4.08,4.2,9.35,9.98,13.27,14.34,4.17,4.63,9.65,10.89,13.7,15.63,6.74,8.1,15.59,19.01,22.13,27.27,3.33,4.2,7.56,9.97,10.76,14.27s7.45,10.22,10.53,14.68c4.23,6.1,9.77,14.31,13.86,20.51,4.98,7.86,11.58,18.38,16.4,26.34,4.1,6.85,8.01,13.78,11.76,20.79,2.53,4.7,5.97,10.94,8.44,15.68,2.77,5.31,6.37,12.43,9.02,17.8,2.32,4.88,5.47,11.35,7.73,16.26,2.52,5.5,5.8,12.86,8.18,18.42,2.08,5.04,4.93,11.73,6.95,16.79,2.25,5.67,5.17,13.27,7.28,18.99,1.83,5.18,4.35,12.07,6.11,17.28,1.97,5.83,4.49,13.64,6.31,19.51,2.51,8.06,4.84,16.18,6.98,24.36,1.41,5.4,3.37,12.58,4.71,18,1.49,6.04,3.36,14.13,4.69,20.21,1.79,8.38,3.4,16.81,4.81,25.3.96,5.55,2.32,12.94,3.2,18.51.98,6.21,2.17,14.5,2.98,20.73.81,6.72,1.51,13.44,2.09,20.16.52,5.75,1.31,13.41,1.75,19.17.48,6.41,1.01,14.96,1.32,21.37.36,9.03.51,18.06.44,27.09h0c0,5.77.11,13.46.02,19.23-.09,6.42-.34,14.98-.61,21.39-.48,9.06-1.17,18.11-2.07,27.14-.52,5.75-1.11,13.42-1.72,19.16-.68,6.39-1.7,14.9-2.56,21.27-1.32,9.03-2.85,18.04-4.58,27.03,0,5.78-2.34,13.29-3.48,18.96-1.26,6.32-3.07,14.72-4.52,21.01-2.16,8.95-4.52,17.87-7.09,26.76,0,5.81-3.56,13.08-5.22,18.64-1.85,6.21-4.42,14.46-6.45,20.61-2.24,6.62-4.58,13.18-7.03,19.69h0c-2.02,5.43-4.63,12.7-6.73,18.09-2.34,6-5.58,13.95-8.09,19.87-3.63,8.48-7.45,16.86-11.45,25.13,0,5.74-5.72,12.12-8.29,17.25-2.86,5.71-6.78,13.28-9.8,18.91-4.35,8.04-8.88,15.98-13.59,23.8-2.93,4.9-6.76,11.47-9.77,16.32-3.35,5.4-7.92,12.53-11.42,17.83-5.04,7.57-10.26,15.02-15.65,22.35h0c-3.35,4.59-7.75,10.75-11.17,15.29-3.81,5.05-8.99,11.72-12.94,16.66-5.7,7.05-11.58,13.97-17.62,20.77h0c-3.74,4.25-8.66,9.98-12.46,14.18-4.24,4.68-9.97,10.83-14.34,15.39-4.59,4.7-9.25,9.32-13.98,13.85-3.94,3.82-9.14,8.98-13.14,12.74-4.44,4.19-10.44,9.69-14.99,13.76-4.12,3.58-9.57,8.42-13.75,11.94-4.64,3.92-10.9,9.06-15.64,12.85-6.66,5.32-13.44,10.48-20.34,15.48h0c-4.35,3.18-10.12,7.47-14.51,10.59-4.89,3.46-11.46,8-16.44,11.34-4.49,2.93-10.44,6.89-14.97,9.76-5.03,3.18-11.8,7.35-16.91,10.4-4.61,2.67-10.72,6.3-15.36,8.92-5.16,2.9-12.08,6.69-17.3,9.46-7.24,3.84-14.59,7.51-22.03,11.02-4.73,2.25-11.02,5.31-15.78,7.5-5.29,2.43-12.37,5.58-17.71,7.88-4.8,1.99-11.17,4.72-15.99,6.65-5.35,2.14-12.51,4.92-17.91,6.94-8.51,3.07-19.87,7.12-28.43,10.02-6,1.9-13.97,4.55-20,6.33-7.77,2.29-18.17,5.2-25.99,7.26-4.79,1.18-11.16,2.82-15.96,3.95-5.29,1.24-12.36,2.81-17.68,3.93-5.97,1.18-13.9,2.85-19.89,3.92-7.66,1.37-17.91,3.05-25.6,4.21-5.89.78-13.74,1.93-19.65,2.61-7.53.87-17.59,1.9-25.14,2.57-5.75.41-13.42,1.06-19.18,1.38-7.31.4-17.07.81-24.39,1.03-6.46.07-15.08.32-21.54.25-9.93-.11-23.16-.45-33.08-.85-14.78-.95-34.51-2.22-49.21-4.01-7.31-.89-17.06-2.08-24.34-3.21-10.18-1.58-23.71-3.9-33.83-5.81-4.49-.82-8.87-2.23-13.15-4.22-24.66-11.51-44.63-42.18-59.33-91.17Zm336.34-1015.66l-37.68-11.56-39-7.5-40-3.47-40.66.55-40.95,4.55-40.74,8.56-39.52,12.65-37.81,16.61-35.67,20.29-33.13,23.79-30.19,27.1-26.88,30.18-23.22,33.05-19.25,35.67-15.01,38.06-10.56,40.22-10.35,39.12-6.18,37.81-2.36,36.36,1.11,34.81,4.24,33.18,7.05,31.51,9.54,29.82,11.76,28.13,13.71,26.43,15.44,24.61,17,22.83,18.43,21.16,19.8,19.59,21.15,18.16,22.55,16.86,23.89,15.69,9.45,5.7,10.02,5.72,10.54,5.68,11.02,5.59,11.47,5.45,11.9,5.26,12.32,5.02,12.74,4.73,13.17,4.39,13.63,4.01,14.12,3.58,14.65,3.11,15.24,2.6,15.89,2.05,16.61,1.45,17.39.81,25.42-.79,25.66-2.49,25.93-4.26,26.21-6.11,26.44-8.07,26.59-10.17,26.62-12.42,26.39-14.71,25.9-17.1,25.16-19.66,24.16-22.37,22.86-25.25,21.25-28.27,19.31-31.42,17.02-34.69,14.74-38.64,10.68-39.58,6.54-39.59,2.5-39.36-1.42-38.87-5.19-38.12-8.8-37.1-12.23-35.82-15.49-34.29-18.58-32.5-21.53-30.38-24.32-28.05-26.95-25.57-29.44-22.93-31.8-20.14-34.07-17.19-36.25-14.07"/>
              </g>
              <path class="cls-4" d="m530.97,1383.77h0c14.7,48.98,34.66,79.65,59.33,91.17,4.28,2,8.66,3.4,13.15,4.22h0c-12.5-2.67-29.14-6.32-41.56-9.34-7.48-2.04-17.49-4.63-24.93-6.81-8.08-2.37-18.8-5.72-26.79-8.37-7.04-2.48-16.47-5.66-23.46-8.28-7.85-2.94-18.26-7.03-26.01-10.23-6.56-2.85-15.38-6.52-21.88-9.51-8.57-3.94-19.92-9.38-28.37-13.59-6.55-3.44-15.37-7.89-21.85-11.47-8.46-4.68-19.65-11.09-27.95-16.04-10.55-6.59-24.53-15.52-34.86-22.44-6.88-4.61-15.83-11.1-22.52-15.99-9.93-7.55-23.12-17.71-32.76-25.63-8.44-6.94-19.35-16.61-27.5-23.89-8.3-7.8-19.24-18.33-27.34-26.34-4.14-4.09-9.43-9.79-13.46-13.99-4.08-4.26-9.35-10.11-13.27-14.52-4.17-4.69-9.65-11.02-13.69-15.82-6.96-8.5-16.3-19.79-22.84-28.61-3.33-4.49-7.86-10.4-11.07-14.96-6.08-8.64-14.05-20.25-19.92-29.03-2.63-4.14-6.22-9.62-8.78-13.8-4.17-6.82-9.62-15.96-13.64-22.87-2.59-4.64-6.11-10.79-8.63-15.47-2.83-5.24-6.53-12.27-9.24-17.57-3.64-7.23-7.1-14.53-10.38-21.91h0c-2.25-4.94-5.33-11.49-7.52-16.45-2.45-5.56-5.63-13.01-7.94-18.63-2.02-5.09-4.78-11.85-6.73-16.97-2.18-5.73-4.99-13.4-7.03-19.19-3.13-9.29-7.23-21.7-10.14-31.06-2.42-8.09-4.65-16.24-6.7-24.45-1.38-5.42-3.29-12.63-4.58-18.08-1.45-6.07-3.27-14.18-4.55-20.28-1.7-8.41-3.21-16.86-4.53-25.37h0c-1.64-9.84-3.76-22.98-5.15-32.87-1.09-8.96-1.96-17.92-2.63-26.89h0c-.48-5.76-1.21-13.43-1.6-19.2-.44-6.41-.9-14.97-1.16-21.4-.25-9.03-.3-18.06-.13-27.08h0c.04-5.77,0-13.47.12-19.25.14-6.42.45-14.99.78-21.4.58-9.05,1.38-18.09,2.38-27.12h0c.56-5.75,1.22-13.42,1.87-19.16.73-6.39,1.82-14.9,2.73-21.27,1.42-9.02,3.06-18.02,4.9-26.99h0c1.09-5.69,2.45-13.29,3.62-18.95,1.31-6.32,3.19-14.71,4.68-20.99,2.26-8.94,4.73-17.84,7.4-26.72h0c2.8-9.81,6.62-22.87,9.7-32.6,2.98-8.82,6.16-17.55,9.51-26.18h0c2.06-5.41,4.72-12.65,6.86-18.02,2.38-5.97,5.68-13.89,8.23-19.79,3.72-8.43,7.63-16.75,11.72-24.98h0c2.52-5.15,5.81-12.06,8.41-17.17,2.9-5.69,6.87-13.21,9.93-18.81,4.44-7.99,9.06-15.87,13.86-23.64,0-5.7,6.85-11.41,9.89-16.23,3.39-5.37,8.01-12.46,11.55-17.73,5.13-7.51,10.44-14.9,15.92-22.17h0c3.38-4.56,7.82-10.68,11.28-15.19,3.85-5.02,9.07-11.64,13.06-16.54,5.79-6.99,11.75-13.85,17.88-20.58,6.6-7.41,15.45-17.25,22.23-24.49,6.12-6.27,12.36-12.39,18.73-18.36h0c3.96-3.78,9.19-8.89,13.2-12.62,4.46-4.14,10.49-9.59,15.06-13.61,4.14-3.54,9.62-8.33,13.81-11.81,4.66-3.87,10.94-8.96,15.7-12.71,6.72-5.24,13.56-10.32,20.51-15.25h0c4.37-3.14,10.15-7.38,14.56-10.46,4.9-3.42,11.5-7.89,16.49-11.19,4.5-2.89,10.47-6.8,15.01-9.62,5.05-3.14,11.83-7.24,16.95-10.25,4.62-2.63,10.74-6.21,15.4-8.78,5.17-2.85,12.1-6.58,17.34-9.31,7.29-3.76,14.69-7.35,22.18-10.77h0c4.74-2.21,11.03-5.21,15.8-7.36,5.29-2.38,12.39-5.47,17.73-7.72,8.45-3.46,19.73-8.01,28.25-11.29,10.47-3.78,24.49-8.68,35.07-12.17,6.49-2.14,15.24-4.7,21.8-6.59,8.49-2.31,19.81-5.35,28.34-7.49,5.98-1.38,13.93-3.33,19.93-4.6,7.7-1.63,17.99-3.66,25.73-5.07,4.67-.77,10.88-1.86,15.56-2.58,5.14-.78,12-1.75,17.16-2.42,5.81-.7,13.55-1.72,19.37-2.32,7.42-.76,17.32-1.64,24.76-2.2,6.52-.39,15.22-1.05,21.75-1.28,10.08-.36,23.53-.63,33.61-.69,6.34.11,14.79.11,21.13.36,9.7.38,22.62,1.08,32.3,1.74,14.63,1.32,34.13,3.26,48.69,5.23,12.25,1.66,28.48,4.63,40.63,6.9,12.25,2.64,28.57,6.25,40.75,9.24,7.33,2.01,17.14,4.56,24.43,6.71,7.91,2.33,18.41,5.63,26.24,8.24,6.9,2.42,16.14,5.52,23,8.08,7.7,2.87,17.91,6.87,25.51,9.99,6.45,2.78,15.1,6.36,21.49,9.28,8.43,3.85,19.59,9.16,27.89,13.27,6.45,3.37,15.12,7.72,21.5,11.22,8.33,4.58,19.35,10.86,27.53,15.71,10.45,6.44,24.28,15.18,34.52,21.96,6.82,4.52,15.69,10.88,22.32,15.68,9.87,7.42,22.97,17.39,32.55,25.17,8.4,6.82,19.25,16.34,27.36,23.51,8.29,7.68,19.22,18.06,27.31,25.95,4.14,4.04,9.43,9.65,13.46,13.8,4.08,4.2,9.35,9.98,13.27,14.34,4.17,4.63,9.65,10.89,13.7,15.63,6.74,8.1,15.59,19.01,22.13,27.27,3.33,4.2,7.56,9.97,10.76,14.27s7.45,10.22,10.53,14.68c4.23,6.1,9.77,14.31,13.86,20.51,4.98,7.86,11.58,18.38,16.4,26.34,4.1,6.85,8.01,13.78,11.76,20.79,2.53,4.7,5.97,10.94,8.44,15.68,2.77,5.31,6.37,12.43,9.02,17.8,2.32,4.88,5.47,11.35,7.73,16.26,2.52,5.5,5.8,12.86,8.18,18.42,2.08,5.04,4.93,11.73,6.95,16.79,2.25,5.67,5.17,13.27,7.28,18.99,1.83,5.18,4.35,12.07,6.11,17.28,1.97,5.83,4.49,13.64,6.31,19.51,2.51,8.06,4.84,16.18,6.98,24.36,1.41,5.4,3.37,12.58,4.71,18,1.49,6.04,3.36,14.13,4.69,20.21,1.79,8.38,3.4,16.81,4.81,25.3.96,5.55,2.32,12.94,3.2,18.51.98,6.21,2.17,14.5,2.98,20.73.81,6.72,1.51,13.44,2.09,20.16.52,5.75,1.31,13.41,1.75,19.17.48,6.41,1.01,14.96,1.32,21.37.36,9.03.51,18.06.44,27.09h0c0,5.77.11,13.46.02,19.23-.09,6.42-.34,14.98-.61,21.39-.48,9.06-1.17,18.11-2.07,27.14-.52,5.75-1.11,13.42-1.72,19.16-.68,6.39-1.7,14.9-2.56,21.27-1.32,9.03-2.85,18.04-4.58,27.03,0,5.78-2.34,13.29-3.48,18.96-1.26,6.32-3.07,14.72-4.52,21.01-2.16,8.95-4.52,17.87-7.09,26.76,0,5.81-3.56,13.08-5.22,18.64-1.85,6.21-4.42,14.46-6.45,20.61-2.24,6.62-4.58,13.18-7.03,19.69h0c-2.02,5.43-4.63,12.7-6.73,18.09-2.34,6-5.58,13.95-8.09,19.87-3.63,8.48-7.45,16.86-11.45,25.13,0,5.74-5.72,12.12-8.29,17.25-2.86,5.71-6.78,13.28-9.8,18.91-4.35,8.04-8.88,15.98-13.59,23.8-2.93,4.9-6.76,11.47-9.77,16.32-3.35,5.4-7.92,12.53-11.42,17.83-5.04,7.57-10.26,15.02-15.65,22.35h0c-3.35,4.59-7.75,10.75-11.17,15.29-3.81,5.05-8.99,11.72-12.94,16.66-5.7,7.05-11.58,13.97-17.62,20.77h0c-3.74,4.25-8.66,9.98-12.46,14.18-4.24,4.68-9.97,10.83-14.34,15.39-4.59,4.7-9.25,9.32-13.98,13.85-3.94,3.82-9.14,8.98-13.14,12.74-4.44,4.19-10.44,9.69-14.99,13.76-4.12,3.58-9.57,8.42-13.75,11.94-4.64,3.92-10.9,9.06-15.64,12.85-6.66,5.32-13.44,10.48-20.34,15.48h0c-4.35,3.18-10.12,7.47-14.51,10.59-4.89,3.46-11.46,8-16.44,11.34-4.49,2.93-10.44,6.89-14.97,9.76-5.03,3.18-11.8,7.35-16.91,10.4-4.61,2.67-10.72,6.3-15.36,8.92-5.16,2.9-12.08,6.69-17.3,9.46-7.24,3.84-14.59,7.51-22.03,11.02-4.73,2.25-11.02,5.31-15.78,7.5-5.29,2.43-12.37,5.58-17.71,7.88-4.8,1.99-11.17,4.72-15.99,6.65-5.35,2.14-12.51,4.92-17.91,6.94-8.51,3.07-19.87,7.12-28.43,10.02-6,1.9-13.97,4.55-20,6.33-7.77,2.29-18.17,5.2-25.99,7.26-4.79,1.18-11.16,2.82-15.96,3.95-5.29,1.24-12.36,2.81-17.68,3.93-5.97,1.18-13.9,2.85-19.89,3.92-7.66,1.37-17.91,3.05-25.6,4.21-5.89.78-13.74,1.93-19.65,2.61-7.53.87-17.59,1.9-25.14,2.57-5.75.41-13.42,1.06-19.18,1.38-7.31.4-17.07.81-24.39,1.03-6.46.07-15.08.32-21.54.25-9.93-.11-23.16-.45-33.08-.85-14.78-.95-34.51-2.22-49.21-4.01-7.31-.89-17.06-2.08-24.34-3.21-10.18-1.58-23.71-3.9-33.83-5.81-4.49-.82-8.87-2.23-13.15-4.22-24.66-11.51-44.63-42.18-59.33-91.17Zm336.34-1015.66l-37.68-11.56-39-7.5-40-3.47-40.66.55-40.95,4.55-40.74,8.56-39.52,12.65-37.81,16.61-35.67,20.29-33.13,23.79-30.19,27.1-26.88,30.18-23.22,33.05-19.25,35.67-15.01,38.06-10.56,40.22-10.35,39.12-6.18,37.81-2.36,36.36,1.11,34.81,4.24,33.18,7.05,31.51,9.54,29.82,11.76,28.13,13.71,26.43,15.44,24.61,17,22.83,18.43,21.16,19.8,19.59,21.15,18.16,22.55,16.86,23.89,15.69,9.45,5.7,10.02,5.72,10.54,5.68,11.02,5.59,11.47,5.45,11.9,5.26,12.32,5.02,12.74,4.73,13.17,4.39,13.63,4.01,14.12,3.58,14.65,3.11,15.24,2.6,15.89,2.05,16.61,1.45,17.39.81,25.42-.79,25.66-2.49,25.93-4.26,26.21-6.11,26.44-8.07,26.59-10.17,26.62-12.42,26.39-14.71,25.9-17.1,25.16-19.66,24.16-22.37,22.86-25.25,21.25-28.27,19.31-31.42,17.02-34.69,14.74-38.64,10.68-39.58,6.54-39.59,2.5-39.36-1.42-38.87-5.19-38.12-8.8-37.1-12.23-35.82-15.49-34.29-18.58-32.5-21.53-30.38-24.32-28.05-26.95-25.57-29.44-22.93-31.8-20.14-34.07-17.19-36.25-14.07"/>
            </g>
            <g class="cls-5">
              <g class="cls-2">
                <g class="cls-5">
                  <g>
                    <path class="cls-4" d="m962.04,109.49c14.7,48.98,23.27,113.35,25.45,191.31-151.78-29.78-293.8-117.16-317.21-195.16,98.28-16.15,196.44-14.85,291.76,3.85Z"/>
                    <path class="cls-4" d="m974.69,163.54c-52.06-10.22-100.78-40.19-108.81-66.94"/>
                    <path class="cls-4" d="m983.19,227.44c-102.76-20.16-198.91-79.32-214.76-132.13"/>
                    <path class="cls-4" d="m962.04,109.49c-35.41,32.86-75.46,81.58-119.04,144.81"/>
                    <path class="cls-4" d="m962.04,109.49c-74.88,8.57-153.22,33.74-232.84,74.79"/>
                  </g>
                  <g>
                    <path class="cls-4" d="m962.04,109.49c-95.31-18.7-193.47-20-291.76-3.85-23.41-78,80.65-117.1,232.43-87.31,24.67,11.51,44.63,42.18,59.33,91.17Z"/>
                    <path class="cls-4" d="m865.88,96.59c-8.03-26.76,27.66-40.17,79.73-29.95"/>
                    <path class="cls-4" d="m768.42,95.31c-15.85-52.81,54.6-79.28,157.36-59.12"/>
                    <path class="cls-4" d="m962.04,109.49c-89.72-40.87-182.45-63.68-275.63-67.78"/>
                    <path class="cls-4" d="m962.04,109.49c-60.8-51.73-125.48-85.08-192.25-99.1"/>
                  </g>
                  <g>
                    <path class="cls-4" d="m962.04,109.49c-14.7-48.98-34.66-79.66-59.33-91.17,151.78,29.78,293.8,117.16,317.21,195.16-75.8-50.31-162.57-85.29-257.88-103.99Z"/>
                    <path class="cls-4" d="m945.6,66.64c52.06,10.22,100.78,40.19,108.81,66.94"/>
                    <path class="cls-4" d="m925.79,36.19c102.76,20.16,198.91,79.32,214.76,132.13"/>
                    <path class="cls-4" d="m962.04,109.49c35.41-32.86,64.07-47.89,85.17-44.67"/>
                    <path class="cls-4" d="m962.04,109.49c74.88-8.57,141.82-.05,198.96,25.35"/>
                  </g>
                  <g>
                    <path class="cls-4" d="m962.04,109.49c95.31,18.7,182.08,53.69,257.88,103.99,23.41,78-80.65,117.1-232.43,87.31-2.19-77.96-10.75-142.32-25.45-191.31Z"/>
                    <path class="cls-4" d="m1054.41,133.59c8.03,26.76-27.66,40.17-79.73,29.95"/>
                    <path class="cls-4" d="m1140.55,168.32c15.85,52.81-54.6,79.28-157.36,59.12"/>
                    <path class="cls-4" d="m962.04,109.49c89.72,40.87,171.06,97.36,241.75,167.92"/>
                    <path class="cls-4" d="m962.04,109.49c60.8,51.73,114.08,118.77,158.37,199.24"/>
                  </g>
                  <g>
                    <path class="cls-4" d="m987.49,300.8c2.11,75.3-1.78,160.04-11.57,251.88-275.72-54.1-533.72-212.83-576.25-354.54,84.64-45.79,175.68-76.91,270.61-92.51,23.41,78,165.43,165.38,317.21,195.16Z"/>
                    <path class="cls-4" d="m987.6,379.16c-196.59-38.57-380.54-151.75-410.86-252.78"/>
                    <path class="cls-4" d="m983.74,463.29c-237.99-46.7-460.68-183.71-497.39-306.02"/>
                    <path class="cls-4" d="m843,254.3c-42.09,61.07-85.68,133.04-129.57,213.91"/>
                    <path class="cls-4" d="m729.2,184.29c-76.91,39.65-151.76,92.38-222.5,156.73"/>
                  </g>
                  <g>
                    <path class="cls-4" d="m670.28,105.64c-94.93,15.59-185.98,46.71-270.61,92.51C357.14,56.44,546.18-14.57,821.9,39.53c29.8-25.19,56.98-32.32,80.81-21.2-151.78-29.78-255.84,9.31-232.43,87.31Z"/>
                    <path class="cls-4" d="m576.74,126.38c-30.32-101.03,104.46-151.67,301.05-113.09"/>
                    <path class="cls-4" d="m486.35,157.28c-36.71-122.31,126.46-183.61,364.45-136.91"/>
                    <path class="cls-4" d="m686.41,41.72c-90-3.96-176.61,9.59-257.44,40.3"/>
                    <path class="cls-4" d="m769.79,10.39c-64.49-13.55-128.19-8.59-189.35,14.72"/>
                  </g>
                  <g>
                    <path class="cls-4" d="m902.71,18.33c-23.82-11.12-51.01-3.99-80.81,21.2,275.72,54.1,533.72,212.83,576.25,354.54-45.05-71.24-105.01-131.99-178.23-180.58-23.41-78-165.43-165.38-317.21-195.16Z"/>
                    <path class="cls-4" d="m877.79,13.28c196.59,38.57,380.54,151.75,410.86,252.78"/>
                    <path class="cls-4" d="m850.8,20.36c237.99,46.7,460.68,183.71,497.39,306.02"/>
                    <path class="cls-4" d="m1047.2,64.83c20.38,3.11,32.89,23.01,37.19,59.17"/>
                    <path class="cls-4" d="m1161,134.84c55.19,24.52,98.97,63.67,130.12,116.35"/>
                  </g>
                  <g>
                    <path class="cls-4" d="m1219.92,213.49c73.22,48.59,133.19,109.34,178.23,180.58,42.53,141.7-146.51,212.72-422.23,158.62,9.79-91.84,13.69-176.58,11.57-251.88,151.78,29.78,255.84-9.31,232.43-87.31Z"/>
                    <path class="cls-4" d="m1288.66,266.07c30.32,101.03-104.46,151.67-301.05,113.09"/>
                    <path class="cls-4" d="m1348.19,326.38c36.71,122.31-126.46,183.61-364.45,136.91"/>
                    <path class="cls-4" d="m1203.79,277.41c68.29,68.14,123.82,146.46,165.06,232.78"/>
                    <path class="cls-4" d="m1120.41,308.74c42.78,77.72,75.4,164.65,96.97,258.36"/>
                  </g>
                  <g>
                    <path class="cls-4" d="m975.92,552.68c-9.79,91.84-24.99,186.14-45.17,280.29-359.29-70.5-695.48-277.34-750.9-461.99,61.23-68.89,135.19-127.04,219.82-172.83,42.53,141.7,300.52,300.43,576.25,354.54Z"/>
                    <path class="cls-4" d="m964.34,645.24c-308.94-60.62-598.01-238.47-645.67-397.25"/>
                    <path class="cls-4" d="m949.25,738.87c-336.85-66.1-652.05-260.02-704-433.14"/>
                    <path class="cls-4" d="m713.43,468.21c-43.89,80.87-85.85,166.55-124.73,254.69"/>
                    <path class="cls-4" d="m506.7,341.02c-70.74,64.35-133.78,137.07-187.38,216.14"/>
                  </g>
                  <g>
                    <path class="cls-4" d="m399.67,198.15c-84.64,45.79-158.59,103.94-219.82,172.83-55.42-184.65,190.92-277.19,550.21-206.69,31.15-57.59,62.05-99.57,91.85-124.76-275.72-54.1-464.76,16.91-422.23,158.62Z"/>
                    <path class="cls-4" d="m318.67,248C271.02,89.22,482.83,9.65,791.77,70.27"/>
                    <path class="cls-4" d="m245.24,305.73C193.29,132.61,424.24,45.85,761.09,111.94"/>
                    <path class="cls-4" d="m428.96,82.02c-80.83,30.71-151.8,77.02-210.94,137.64"/>
                    <path class="cls-4" d="m580.44,25.12c-61.16,23.32-116.68,63.83-165.03,120.39"/>
                  </g>
                  <g>
                    <path class="cls-4" d="m821.9,39.53c-29.8,25.19-60.7,67.17-91.85,124.76,359.29,70.5,695.48,277.34,750.9,461.99-9.9-82.85-37.75-160.97-82.8-232.21-42.53-141.7-300.52-300.43-576.25-354.54Z"/>
                    <path class="cls-4" d="m791.77,70.27c308.94,60.62,598.01,238.47,645.67,397.25"/>
                    <path class="cls-4" d="m761.09,111.94c336.85,66.1,652.05,260.02,704,433.14"/>
                    <path class="cls-4" d="m1084.39,124c4.3,36.16.16,86.75-12.29,150.36"/>
                    <path class="cls-4" d="m1291.12,251.19c31.15,52.68,48.09,116.24,50.36,188.91"/>
                  </g>
                  <g>
                    <path class="cls-4" d="m1398.15,394.06c45.05,71.24,72.9,149.36,82.8,232.21,55.42,184.65-190.92,277.19-550.21,206.69,20.18-94.15,35.38-188.45,45.17-280.29,275.72,54.1,464.76-16.91,422.23-158.62Z"/>
                    <path class="cls-4" d="m1437.44,467.52c47.65,158.77-164.16,238.35-473.1,177.73"/>
                    <path class="cls-4" d="m1465.1,545.08c51.96,173.12-178.99,259.88-515.85,193.79"/>
                    <path class="cls-4" d="m1368.86,510.19c41.24,86.32,66.11,176.29,73.92,267.41"/>
                    <path class="cls-4" d="m1217.38,567.09c21.57,93.71,30.99,189.48,28.01,284.66"/>
                  </g>
                  <g>
                    <path class="cls-4" d="m930.74,832.97c-20.89,97.47-46.24,190.5-75.34,276.51C465.48,1032.97,100.62,808.49,40.47,608.09c29.1-86.01,75.99-165.79,139.37-237.11,55.42,184.65,391.61,391.49,750.9,461.99Z"/>
                    <path class="cls-4" d="m908.39,928.86c-376.27-73.83-728.35-290.44-786.38-483.82"/>
                    <path class="cls-4" d="m883.23,1021.22c-386.5-75.84-748.16-298.34-807.77-496.98"/>
                    <path class="cls-4" d="m588.7,722.89c-40.25,91.24-75.41,181.11-104.51,267.13"/>
                    <path class="cls-4" d="m319.31,557.16c-55.49,81.86-98.38,166.98-127.48,252.99"/>
                  </g>
                  <g>
                    <path class="cls-4" d="m179.85,370.98c-63.39,71.33-110.28,151.1-139.37,237.11-60.14-200.4,207.2-300.83,597.13-224.32,29.1-86.01,60.2-159.86,92.45-219.49C370.76,93.79,124.43,186.33,179.85,370.98Z"/>
                    <path class="cls-4" d="m122.01,445.04c-58.04-193.38,199.94-290.29,576.21-216.46"/>
                    <path class="cls-4" d="m75.45,524.24c-59.62-198.64,205.38-298.19,591.88-222.35"/>
                    <path class="cls-4" d="m218.02,219.66c-61.23,62.76-107.02,138.2-136.12,224.21"/>
                    <path class="cls-4" d="m415.41,145.51c-50.06,58.57-90.19,131.88-119.29,217.89"/>
                  </g>
                  <g>
                    <path class="cls-4" d="m730.05,164.29c-32.25,59.63-63.36,133.48-92.45,219.49,389.93,76.51,754.79,300.99,814.93,501.39,29.1-86.01,38.66-173.11,28.42-258.89-55.42-184.65-391.61-391.49-750.9-461.99Z"/>
                    <path class="cls-4" d="m698.22,228.58c376.27,73.83,728.35,290.44,786.38,483.82"/>
                    <path class="cls-4" d="m667.34,301.89c386.5,75.84,748.16,298.34,807.77,496.98"/>
                    <path class="cls-4" d="m1072.1,274.36c-12.89,65.86-34.19,142.86-63.28,228.87"/>
                    <path class="cls-4" d="m1341.49,440.1c2.35,75.24-11.21,157-40.31,243.01"/>
                  </g>
                  <g>
                    <path class="cls-4" d="m1480.95,626.28c10.24,85.77.68,172.88-28.42,258.89,60.14,200.4-207.2,300.83-597.13,224.32,29.1-86.01,54.44-179.04,75.34-276.51,359.29,70.5,605.63-22.04,550.21-206.69Z"/>
                    <path class="cls-4" d="m1484.6,712.4c58.04,193.38-199.94,290.29-576.21,216.46"/>
                    <path class="cls-4" d="m1475.11,798.88c59.62,198.64-205.38,298.19-591.88,222.35"/>
                    <path class="cls-4" d="m1442.78,777.6c8.08,94.34-2.58,185.78-31.67,271.79"/>
                    <path class="cls-4" d="m1245.39,851.75c-3.09,98.53-19.41,192.1-48.51,278.11"/>
                  </g>
                  <g>
                    <path class="cls-4" d="m855.41,1109.48c-29.1,86.02-60.2,159.86-92.45,219.49C403.66,1258.48,67.47,1051.64,12.05,866.99c-10.24-85.77-.68-172.88,28.42-258.89,60.14,200.4,425,424.88,814.93,501.39Z"/>
                    <path class="cls-4" d="m825.67,1191.36C439.17,1115.53,77.51,893.02,17.9,694.38"/>
                    <path class="cls-4" d="m794.79,1264.68C418.52,1190.85,66.44,974.24,8.4,780.86"/>
                    <path class="cls-4" d="m484.19,990.02c-29.1,86.02-50.39,163.02-63.29,228.88"/>
                    <path class="cls-4" d="m191.83,810.15c-29.1,86.02-42.66,167.78-40.31,243.01"/>
                  </g>
                  <g>
                    <path class="cls-4" d="m40.47,608.09C11.38,694.11,1.81,781.21,12.05,866.99c-55.42-184.65,190.92-277.19,550.21-206.69,20.89-97.47,46.24-190.5,75.34-276.52C247.67,307.26-19.67,407.7,40.47,608.09Z"/>
                    <path class="cls-4" d="m17.9,694.38c-59.62-198.64,205.38-298.19,591.88-222.35"/>
                    <path class="cls-4" d="m8.4,780.86c-58.04-193.38,199.94-290.29,576.21-216.46"/>
                    <path class="cls-4" d="m81.9,443.87c-29.1,86.02-39.76,177.46-31.67,271.8"/>
                    <path class="cls-4" d="m296.12,363.39c-29.1,86.02-45.42,179.59-48.51,278.12"/>
                  </g>
                  <g>
                    <path class="cls-4" d="m637.6,383.77c-29.1,86.02-54.45,179.05-75.34,276.52,359.29,70.5,695.48,277.34,750.9,461.99,63.39-71.33,110.28-151.1,139.38-237.12-60.14-200.4-425-424.88-814.93-501.39Z"/>
                    <path class="cls-4" d="m609.78,472.03c386.5,75.84,748.16,298.34,807.77,496.98"/>
                    <path class="cls-4" d="m584.61,564.4c376.27,73.83,728.35,290.44,786.38,483.82"/>
                    <path class="cls-4" d="m1008.82,503.24c-29.1,86.02-64.26,175.89-104.51,267.13"/>
                    <path class="cls-4" d="m1301.17,683.11c-29.1,86.02-71.99,171.14-127.48,253"/>
                  </g>
                  <g>
                    <path class="cls-4" d="m1452.53,885.16c-29.1,86.02-75.99,165.79-139.38,237.12,55.42,184.65-190.92,277.19-550.21,206.69,32.25-59.63,63.36-133.48,92.45-219.49,389.93,76.51,657.27-23.92,597.13-224.32Z"/>
                    <path class="cls-4" d="m1417.55,969.02c59.62,198.64-205.38,298.19-591.88,222.35"/>
                    <path class="cls-4" d="m1371,1048.22c58.04,193.38-199.94,290.29-576.21,216.46"/>
                    <path class="cls-4" d="m1411.1,1049.39c-29.1,86.02-74.89,161.45-136.12,224.22"/>
                    <path class="cls-4" d="m1196.88,1129.86c-29.1,86.02-69.23,159.33-119.29,217.89"/>
                  </g>
                  <g>
                    <path class="cls-4" d="m762.95,1328.97c-31.15,57.59-62.05,99.56-91.85,124.75-275.72-54.1-533.72-212.83-576.25-354.54-45.05-71.24-72.9-149.36-82.8-232.21,55.42,184.65,391.61,391.49,750.9,461.99Z"/>
                    <path class="cls-4" d="m731.92,1381.31C395.06,1315.22,79.87,1121.3,27.91,948.18"/>
                    <path class="cls-4" d="m701.24,1422.99c-308.94-60.62-598.01-238.47-645.67-397.25"/>
                    <path class="cls-4" d="m420.91,1218.9c-12.45,63.6-16.59,114.19-12.29,150.35"/>
                    <path class="cls-4" d="m151.52,1053.16c2.28,72.66,19.22,136.22,50.36,188.9"/>
                  </g>
                  <g>
                    <path class="cls-4" d="m12.05,866.99c9.9,82.84,37.76,160.97,82.8,232.21-42.53-141.7,146.51-212.72,422.23-158.62,9.79-91.84,24.99-186.14,45.17-280.28C202.97,589.79-43.36,682.33,12.05,866.99Z"/>
                    <path class="cls-4" d="m27.91,948.18c-51.96-173.12,178.99-259.88,515.85-193.79"/>
                    <path class="cls-4" d="m55.57,1025.74c-47.65-158.77,164.16-238.35,473.1-177.73"/>
                    <path class="cls-4" d="m50.23,715.66c7.81,91.12,32.68,181.08,73.92,267.4"/>
                    <path class="cls-4" d="m247.62,641.51c-2.98,95.17,6.45,190.94,28.01,284.65"/>
                  </g>
                  <g>
                    <path class="cls-4" d="m562.26,660.29c-20.18,94.14-35.38,188.44-45.17,280.28,275.72,54.1,533.72,212.83,576.25,354.54,84.64-45.79,158.59-103.94,219.82-172.83-55.42-184.65-391.61-391.49-750.9-461.99Z"/>
                    <path class="cls-4" d="m543.76,754.39c336.85,66.1,652.05,260.02,704,433.14"/>
                    <path class="cls-4" d="m528.67,848.01c308.94,60.62,598.01,238.47,645.67,397.25"/>
                    <path class="cls-4" d="m904.31,770.37c-38.88,88.12-80.84,173.81-124.73,254.68"/>
                    <path class="cls-4" d="m1173.69,936.11c-53.6,79.06-116.65,151.78-187.38,216.13"/>
                  </g>
                  <g>
                    <path class="cls-4" d="m1313.16,1122.28c-61.23,68.89-135.18,127.04-219.82,172.83,42.53,141.7-146.51,212.72-422.23,158.62,29.8-25.19,60.7-67.17,91.85-124.75,359.29,70.5,605.63-22.04,550.21-206.69Z"/>
                    <path class="cls-4" d="m1247.76,1187.53c51.96,173.12-178.99,259.88-515.85,193.79"/>
                    <path class="cls-4" d="m1174.34,1245.26c47.65,158.77-164.16,238.35-473.1,177.73"/>
                    <path class="cls-4" d="m1274.98,1273.6c-59.14,60.61-130.11,106.92-210.94,137.63"/>
                    <path class="cls-4" d="m1077.6,1347.75c-48.35,56.56-103.87,97.07-165.03,120.39"/>
                  </g>
                  <g>
                    <path class="cls-4" d="m671.1,1453.73c-29.8,25.19-56.98,32.33-80.81,21.21-151.78-29.78-293.8-117.16-317.21-195.16-73.22-48.59-133.18-109.34-178.23-180.58,42.53,141.7,300.52,300.43,576.25,354.54Z"/>
                    <path class="cls-4" d="m642.2,1472.89c-237.99-46.7-460.68-183.71-497.39-306.02"/>
                    <path class="cls-4" d="m615.21,1479.98c-196.59-38.57-380.54-151.75-410.86-252.78"/>
                    <path class="cls-4" d="m408.61,1369.26c4.3,36.16,16.81,56.07,37.19,59.18"/>
                    <path class="cls-4" d="m201.88,1242.07c31.15,52.68,74.92,91.83,130.12,116.36"/>
                  </g>
                  <g>
                    <path class="cls-4" d="m94.86,1099.19c45.05,71.24,105.01,132,178.23,180.58-23.41-78,80.65-117.1,232.43-87.31-2.11-75.3,1.78-160.05,11.58-251.88-275.72-54.1-464.76,16.91-422.23,158.62Z"/>
                    <path class="cls-4" d="m144.82,1166.87c-36.71-122.31,126.46-183.61,364.45-136.91"/>
                    <path class="cls-4" d="m204.35,1227.19c-30.32-101.03,104.46-151.67,301.05-113.09"/>
                    <path class="cls-4" d="m124.15,983.07c41.24,86.32,96.78,164.64,165.06,232.78"/>
                    <path class="cls-4" d="m275.63,926.16c21.57,93.71,54.19,180.64,96.97,258.36"/>
                  </g>
                  <g>
                    <path class="cls-4" d="m517.09,940.57c-9.79,91.84-13.69,176.59-11.58,251.88,151.78,29.78,293.8,117.16,317.21,195.16,94.93-15.59,185.98-46.72,270.61-92.51-42.53-141.7-300.52-300.43-576.25-354.54Z"/>
                    <path class="cls-4" d="m509.27,1029.96c237.99,46.7,460.68,183.71,497.39,306.02"/>
                    <path class="cls-4" d="m505.4,1114.1c196.59,38.57,380.54,151.75,410.86,252.78"/>
                    <path class="cls-4" d="m779.58,1025.05c-43.89,80.87-87.48,152.84-129.57,213.91"/>
                    <path class="cls-4" d="m986.31,1152.24c-70.74,64.35-145.6,117.08-222.5,156.74"/>
                  </g>
                  <g>
                    <path class="cls-4" d="m1093.34,1295.11c-84.64,45.79-175.69,76.92-270.61,92.51,23.41,78-80.65,117.1-232.43,87.31,23.82,11.12,51.01,3.98,80.81-21.21,275.72,54.1,464.76-16.91,422.23-158.62Z"/>
                    <path class="cls-4" d="m1006.66,1335.98c36.71,122.31-126.46,183.61-364.45,136.91"/>
                    <path class="cls-4" d="m916.26,1366.88c30.32,101.03-104.46,151.67-301.05,113.09"/>
                    <path class="cls-4" d="m1064.04,1411.23c-80.83,30.71-167.45,44.27-257.45,40.31"/>
                    <path class="cls-4" d="m912.57,1468.14c-61.16,23.32-124.87,28.28-189.35,14.73"/>
                  </g>
                </g>
                <path class="cls-4" d="m765.44,1492.79c-10.07.28-23.5.22-33.57.11-6.32-.07-14.74-.5-21.05-.71-10.45-.57-24.36-1.57-34.78-2.49-7.36-.65-17.14-1.86-24.47-2.75-14.52-1.76-33.73-5.22-48.12-7.79,20.52,3.75,43.21-4.76,67.66-25.43,29.8-25.19,60.7-67.17,91.85-124.75,32.25-59.63,63.36-133.48,92.45-219.49,29.1-86.01,54.44-179.04,75.34-276.51,20.18-94.15,35.38-188.45,45.17-280.29,9.79-91.84,13.69-176.58,11.57-251.88-2.19-77.96-10.75-142.32-25.45-191.31,14.7,48.98,23.27,113.35,25.45,191.31,2.11,75.3-1.78,160.04-11.57,251.88-9.79,91.84-24.99,186.14-45.17,280.29-20.89,97.47-46.24,190.5-75.34,276.51-29.1,86.02-60.2,159.86-92.45,219.49-31.15,57.59-62.05,99.56-91.85,124.75-24.45,20.67-47.14,29.18-67.66,25.43-12.51-2.59-29.12-6.41-41.56-9.34-8.36-2.15-19.45-5.2-27.73-7.63-7.24-2.12-16.79-5.28-23.99-7.55-7.89-2.65-18.35-6.36-26.14-9.28-7.05-2.64-16.33-6.46-23.33-9.23-8.55-3.61-19.88-8.59-28.32-12.47-6.64-3.05-15.35-7.44-21.93-10.63-8.54-4.36-19.83-10.36-28.23-14.99-6.55-3.62-15.1-8.76-21.57-12.52-6.75-4.12-15.75-9.65-22.32-14.05-10.64-7.13-24.64-16.92-35.06-24.38-8.44-6.36-19.66-14.88-27.83-21.58-9.92-8.15-22.82-19.42-32.43-27.94-4.38-4.01-10.2-9.38-14.42-13.56-8.23-8.14-19.05-19.14-27.06-27.49-8.22-8.58-18.51-20.63-26.28-29.62-6.49-7.91-15.03-18.56-21.32-26.62-3.43-4.39-7.78-10.42-11.11-14.9-6.74-9.09-15.1-21.67-21.4-31.08-4.29-6.68-9.91-15.65-14.05-22.43-2.58-4.23-5.86-9.97-8.36-14.25-2.94-5.14-6.78-12.05-9.6-17.26-2.54-4.7-5.79-11.05-8.27-15.78-3.64-7.23-7.1-14.53-10.38-21.91-2.57-5.47-5.91-12.81-8.35-18.35-2.2-4.99-4.97-11.71-7.11-16.73-2.31-5.65-5.3-13.22-7.47-18.93-1.96-5.14-4.4-12.06-6.28-17.23-3.18-9.27-7.18-21.72-10.14-31.06-2.42-8.09-4.65-16.24-6.7-24.45-1.6-6.03-3.63-14.09-5.08-20.15-1.3-5.44-2.84-12.75-4.06-18.21-1.7-8.41-3.21-16.86-4.53-25.37-1.7-9.83-3.7-22.99-5.15-32.87-1.09-8.96-1.96-17.92-2.63-26.89-.61-6.41-1.32-14.97-1.75-21.4-.39-5.75-.7-13.44-1.01-19.2-.25-9.03-.3-18.06-.13-27.08-.04-6.43.03-15.01.17-21.45.13-5.76.51-13.44.73-19.2.58-9.05,1.38-18.09,2.38-27.12.54-6.41,1.39-14.96,2.12-21.35.65-5.73,1.74-13.36,2.48-19.08,1.42-9.02,3.06-18.02,4.9-26.99,1.13-6.35,2.76-14.8,4.07-21.12,1.18-5.67,2.96-13.18,4.23-18.83,2.26-8.94,4.73-17.84,7.4-26.72,2.74-9.83,6.68-22.85,9.7-32.6,2.98-8.82,6.16-17.55,9.51-26.18,2.22-6.05,5.29-14.08,7.68-20.07,2.14-5.36,5.19-12.42,7.42-17.75,3.72-8.43,7.63-16.75,11.72-24.98,2.74-5.78,6.5-13.42,9.41-19.12,2.6-5.1,6.26-11.81,8.94-16.87,4.44-7.99,9.06-15.87,13.86-23.64,3.24-5.47,7.66-12.69,11.05-18.06,3.04-4.82,7.27-11.12,10.39-15.89,5.13-7.51,10.44-14.9,15.92-22.17,3.71-5.12,8.75-11.89,12.6-16.91,3.45-4.5,8.22-10.38,11.74-14.83,5.79-6.99,11.75-13.85,17.88-20.58,6.55-7.46,15.49-17.21,22.23-24.49,6.12-6.27,12.36-12.39,18.73-18.36,4.36-4.27,10.26-9.88,14.73-14.04,4.01-3.72,9.47-8.54,13.53-12.19,4.57-4,10.74-9.26,15.41-13.14,4.18-3.47,9.87-7.97,14.11-11.38,6.72-5.24,13.56-10.32,20.51-15.25,4.83-3.55,11.33-8.2,16.25-11.63,4.4-3.07,10.37-7.01,14.81-10.02,4.98-3.27,11.68-7.55,16.74-10.69,4.53-2.81,10.66-6.42,15.22-9.18,5.11-2.99,11.98-6.89,17.17-9.75,4.64-2.56,10.9-5.83,15.57-8.33,7.29-3.76,14.69-7.35,22.18-10.77,5.26-2.51,12.3-5.78,17.62-8.17,4.75-2.14,11.14-4.84,15.92-6.91,8.43-3.5,19.75-7.97,28.25-11.29,6.51-2.42,15.2-5.62,21.8-7.8,10.47-3.46,24.51-7.81,35.08-10.97,8.48-2.35,19.82-5.31,28.34-7.49,7.71-1.86,18.02-4.19,25.77-5.84,5.94-1.26,13.92-2.68,19.88-3.83,5.19-.91,12.12-2.05,17.33-2.85,4.61-.7,10.77-1.5,15.39-2.15,7.49-.97,17.5-2.12,25.02-2.89,5.72-.59,13.38-1.13,19.11-1.62,10.17-.67,23.75-1.35,33.94-1.72,6.42-.23,14.99-.18,21.42-.26,9.87.11,23.03.44,32.89.83,6.17.24,14.38.89,20.54,1.27,12.43,1.06,29.02,2.56,41.38,4.24,14.44,1.96,33.6,5.3,47.94,7.9,12.27,2.56,28.55,6.33,40.75,9.24,8.19,2.12,19.06,5.13,27.17,7.52,7.09,2.09,16.45,5.2,23.49,7.43,7.73,2.59,17.98,6.21,25.62,9.06,6.91,2.58,16.02,6.31,22.88,9.01,8.4,3.51,19.53,8.38,27.82,12.16,6.53,2.98,15.1,7.27,21.56,10.38,8.4,4.26,19.52,10.13,27.78,14.66,6.45,3.54,14.87,8.58,21.25,12.26,6.68,4.03,15.59,9.44,22.09,13.75,10.55,6.99,24.42,16.58,34.75,23.9,8.38,6.24,19.54,14.61,27.65,21.2,9.87,8.02,22.7,19.1,32.27,27.49,4.37,3.95,10.19,9.24,14.4,13.36,8.22,8.02,19.04,18.87,27.04,27.11s18.52,20.37,26.29,29.25c4.58,5.43,10.61,12.74,15.07,18.28,3.34,4.15,7.72,9.73,10.9,14,6.47,8.67,14.9,20.39,21.13,29.23,3.16,4.49,7.13,10.65,10.19,15.22,5.02,7.84,11.55,18.4,16.4,26.34,4.1,6.85,8.01,13.78,11.76,20.79,2.88,5.21,6.63,12.21,9.38,17.49,2.48,4.76,5.65,11.19,8.07,15.99,2.64,5.41,6.08,12.66,8.59,18.13,2.26,4.93,5.13,11.58,7.32,16.54,2.38,5.59,5.47,13.08,7.72,18.73,2.02,5.09,4.56,11.94,6.51,17.05,2.11,5.76,4.82,13.47,6.78,19.27,1.77,5.23,3.95,12.27,5.64,17.52,2.51,8.06,4.84,16.18,6.98,24.36,1.64,6,3.73,14.03,5.22,20.07,1.33,5.42,2.93,12.7,4.18,18.14,1.79,8.38,3.4,16.81,4.81,25.3,1.14,6.18,2.55,14.43,3.53,20.63.88,5.57,1.85,13.02,2.65,18.6.81,6.72,1.51,13.44,2.09,20.16.66,6.4,1.43,14.95,1.91,21.37.44,5.75.81,13.42,1.15,19.18.36,9.03.51,18.06.44,27.09.09,6.43.09,15,0,21.43-.08,5.76-.41,13.44-.58,19.19-.48,9.06-1.17,18.11-2.07,27.14-.49,6.41-1.28,14.95-1.95,21.35-.61,5.73-1.63,13.36-2.33,19.08-1.32,9.03-2.85,18.04-4.58,27.03-1.08,6.35-2.64,14.81-3.91,21.13-1.13,5.67-2.86,13.19-4.08,18.84-2.16,8.95-4.52,17.87-7.09,26.76-1.66,6.26-4,14.56-5.85,20.77-1.66,5.57-4.07,12.94-5.82,18.49-2.24,6.62-4.58,13.18-7.03,19.69-2.17,6.08-5.19,14.14-7.53,20.15-2.1,5.38-5.1,12.47-7.29,17.82-3.63,8.48-7.45,16.86-11.45,25.13-2.7,5.8-6.4,13.49-9.27,19.21-2.56,5.13-6.17,11.87-8.82,16.95-4.35,8.04-8.88,15.98-13.59,23.8-3.2,5.5-7.56,12.76-10.92,18.16-3.01,4.84-7.19,11.19-10.27,15.98-5.04,7.57-10.26,15.02-15.65,22.35-3.67,5.16-8.66,11.96-12.47,17.02-3.42,4.53-8.14,10.45-11.63,14.93-5.7,7.05-11.58,13.97-17.62,20.77-4.11,4.79-9.67,11.1-13.91,15.78-3.8,4.2-9.02,9.65-12.89,13.79-4.59,4.7-9.25,9.32-13.98,13.85-4.34,4.31-10.21,9.98-14.66,14.18-3.99,3.75-9.43,8.62-13.47,12.32-4.55,4.04-10.69,9.36-15.34,13.28-4.16,3.51-10.2,7.66-14.05,11.51-6.66,5.32-13.44,10.48-20.34,15.48-4.81,3.59-11.29,8.31-16.19,11.78-4.39,3.11-10.33,7.11-14.76,10.15-4.97,3.32-11.65,7.65-16.7,10.85-4.52,2.86-10.63,6.52-15.18,9.31-5.1,3.03-11.95,7-17.13,9.91-4.63,2.6-10.88,5.93-15.54,8.47-7.24,3.84-14.59,7.51-22.03,11.02-5.25,2.56-12.29,5.9-17.59,8.33-4.74,2.18-11.13,4.94-15.9,7.05-5.32,2.28-12.45,5.23-17.83,7.38-4.8,1.92-11.25,4.34-16.07,6.2-8.49,3.11-19.88,7.08-28.43,10.02-7.73,2.54-18.09,5.76-25.89,8.07-6,1.77-14.08,3.87-20.11,5.52-5.32,1.37-12.43,3.12-17.78,4.37-4.74,1.11-11.1,2.45-15.86,3.5-7.69,1.59-17.98,3.58-25.72,4.96-5.92,1.06-13.85,2.22-19.78,3.17-7.6,1.08-17.75,2.39-25.38,3.27-5.81.67-13.59,1.33-19.41,1.91-7.42.6-17.32,1.27-24.75,1.68-5.64.31-13.17.56-18.81.72Z"/>
              </g>
              <path class="cls-4" d="m765.44,1492.79c-10.07.28-23.5.22-33.57.11-6.32-.07-14.74-.5-21.05-.71-10.45-.57-24.36-1.57-34.78-2.49-7.36-.65-17.14-1.86-24.47-2.75-14.52-1.76-33.73-5.22-48.12-7.79,20.52,3.75,43.21-4.76,67.66-25.43,29.8-25.19,60.7-67.17,91.85-124.75,32.25-59.63,63.36-133.48,92.45-219.49,29.1-86.01,54.44-179.04,75.34-276.51,20.18-94.15,35.38-188.45,45.17-280.29,9.79-91.84,13.69-176.58,11.57-251.88-2.19-77.96-10.75-142.32-25.45-191.31,14.7,48.98,23.27,113.35,25.45,191.31,2.11,75.3-1.78,160.04-11.57,251.88-9.79,91.84-24.99,186.14-45.17,280.29-20.89,97.47-46.24,190.5-75.34,276.51-29.1,86.02-60.2,159.86-92.45,219.49-31.15,57.59-62.05,99.56-91.85,124.75-24.45,20.67-47.14,29.18-67.66,25.43-12.51-2.59-29.12-6.41-41.56-9.34-8.36-2.15-19.45-5.2-27.73-7.63-7.24-2.12-16.79-5.28-23.99-7.55-7.89-2.65-18.35-6.36-26.14-9.28-7.05-2.64-16.33-6.46-23.33-9.23-8.55-3.61-19.88-8.59-28.32-12.47-6.64-3.05-15.35-7.44-21.93-10.63-8.54-4.36-19.83-10.36-28.23-14.99-6.55-3.62-15.1-8.76-21.57-12.52-6.75-4.12-15.75-9.65-22.32-14.05-10.64-7.13-24.64-16.92-35.06-24.38-8.44-6.36-19.66-14.88-27.83-21.58-9.92-8.15-22.82-19.42-32.43-27.94-4.38-4.01-10.2-9.38-14.42-13.56-8.23-8.14-19.05-19.14-27.06-27.49-8.22-8.58-18.51-20.63-26.28-29.62-6.49-7.91-15.03-18.56-21.32-26.62-3.43-4.39-7.78-10.42-11.11-14.9-6.74-9.09-15.1-21.67-21.4-31.08-4.29-6.68-9.91-15.65-14.05-22.43-2.58-4.23-5.86-9.97-8.36-14.25-2.94-5.14-6.78-12.05-9.6-17.26-2.54-4.7-5.79-11.05-8.27-15.78-3.64-7.23-7.1-14.53-10.38-21.91-2.57-5.47-5.91-12.81-8.35-18.35-2.2-4.99-4.97-11.71-7.11-16.73-2.31-5.65-5.3-13.22-7.47-18.93-1.96-5.14-4.4-12.06-6.28-17.23-3.18-9.27-7.18-21.72-10.14-31.06-2.42-8.09-4.65-16.24-6.7-24.45-1.6-6.03-3.63-14.09-5.08-20.15-1.3-5.44-2.84-12.75-4.06-18.21-1.7-8.41-3.21-16.86-4.53-25.37-1.7-9.83-3.7-22.99-5.15-32.87-1.09-8.96-1.96-17.92-2.63-26.89-.61-6.41-1.32-14.97-1.75-21.4-.39-5.75-.7-13.44-1.01-19.2-.25-9.03-.3-18.06-.13-27.08-.04-6.43.03-15.01.17-21.45.13-5.76.51-13.44.73-19.2.58-9.05,1.38-18.09,2.38-27.12.54-6.41,1.39-14.96,2.12-21.35.65-5.73,1.74-13.36,2.48-19.08,1.42-9.02,3.06-18.02,4.9-26.99,1.13-6.35,2.76-14.8,4.07-21.12,1.18-5.67,2.96-13.18,4.23-18.83,2.26-8.94,4.73-17.84,7.4-26.72,2.74-9.83,6.68-22.85,9.7-32.6,2.98-8.82,6.16-17.55,9.51-26.18,2.22-6.05,5.29-14.08,7.68-20.07,2.14-5.36,5.19-12.42,7.42-17.75,3.72-8.43,7.63-16.75,11.72-24.98,2.74-5.78,6.5-13.42,9.41-19.12,2.6-5.1,6.26-11.81,8.94-16.87,4.44-7.99,9.06-15.87,13.86-23.64,3.24-5.47,7.66-12.69,11.05-18.06,3.04-4.82,7.27-11.12,10.39-15.89,5.13-7.51,10.44-14.9,15.92-22.17,3.71-5.12,8.75-11.89,12.6-16.91,3.45-4.5,8.22-10.38,11.74-14.83,5.79-6.99,11.75-13.85,17.88-20.58,6.55-7.46,15.49-17.21,22.23-24.49,6.12-6.27,12.36-12.39,18.73-18.36,4.36-4.27,10.26-9.88,14.73-14.04,4.01-3.72,9.47-8.54,13.53-12.19,4.57-4,10.74-9.26,15.41-13.14,4.18-3.47,9.87-7.97,14.11-11.38,6.72-5.24,13.56-10.32,20.51-15.25,4.83-3.55,11.33-8.2,16.25-11.63,4.4-3.07,10.37-7.01,14.81-10.02,4.98-3.27,11.68-7.55,16.74-10.69,4.53-2.81,10.66-6.42,15.22-9.18,5.11-2.99,11.98-6.89,17.17-9.75,4.64-2.56,10.9-5.83,15.57-8.33,7.29-3.76,14.69-7.35,22.18-10.77,5.26-2.51,12.3-5.78,17.62-8.17,4.75-2.14,11.14-4.84,15.92-6.91,8.43-3.5,19.75-7.97,28.25-11.29,6.51-2.42,15.2-5.62,21.8-7.8,10.47-3.46,24.51-7.81,35.08-10.97,8.48-2.35,19.82-5.31,28.34-7.49,7.71-1.86,18.02-4.19,25.77-5.84,5.94-1.26,13.92-2.68,19.88-3.83,5.19-.91,12.12-2.05,17.33-2.85,4.61-.7,10.77-1.5,15.39-2.15,7.49-.97,17.5-2.12,25.02-2.89,5.72-.59,13.38-1.13,19.11-1.62,10.17-.67,23.75-1.35,33.94-1.72,6.42-.23,14.99-.18,21.42-.26,9.87.11,23.03.44,32.89.83,6.17.24,14.38.89,20.54,1.27,12.43,1.06,29.02,2.56,41.38,4.24,14.44,1.96,33.6,5.3,47.94,7.9,12.27,2.56,28.55,6.33,40.75,9.24,8.19,2.12,19.06,5.13,27.17,7.52,7.09,2.09,16.45,5.2,23.49,7.43,7.73,2.59,17.98,6.21,25.62,9.06,6.91,2.58,16.02,6.31,22.88,9.01,8.4,3.51,19.53,8.38,27.82,12.16,6.53,2.98,15.1,7.27,21.56,10.38,8.4,4.26,19.52,10.13,27.78,14.66,6.45,3.54,14.87,8.58,21.25,12.26,6.68,4.03,15.59,9.44,22.09,13.75,10.55,6.99,24.42,16.58,34.75,23.9,8.38,6.24,19.54,14.61,27.65,21.2,9.87,8.02,22.7,19.1,32.27,27.49,4.37,3.95,10.19,9.24,14.4,13.36,8.22,8.02,19.04,18.87,27.04,27.11s18.52,20.37,26.29,29.25c4.58,5.43,10.61,12.74,15.07,18.28,3.34,4.15,7.72,9.73,10.9,14,6.47,8.67,14.9,20.39,21.13,29.23,3.16,4.49,7.13,10.65,10.19,15.22,5.02,7.84,11.55,18.4,16.4,26.34,4.1,6.85,8.01,13.78,11.76,20.79,2.88,5.21,6.63,12.21,9.38,17.49,2.48,4.76,5.65,11.19,8.07,15.99,2.64,5.41,6.08,12.66,8.59,18.13,2.26,4.93,5.13,11.58,7.32,16.54,2.38,5.59,5.47,13.08,7.72,18.73,2.02,5.09,4.56,11.94,6.51,17.05,2.11,5.76,4.82,13.47,6.78,19.27,1.77,5.23,3.95,12.27,5.64,17.52,2.51,8.06,4.84,16.18,6.98,24.36,1.64,6,3.73,14.03,5.22,20.07,1.33,5.42,2.93,12.7,4.18,18.14,1.79,8.38,3.4,16.81,4.81,25.3,1.14,6.18,2.55,14.43,3.53,20.63.88,5.57,1.85,13.02,2.65,18.6.81,6.72,1.51,13.44,2.09,20.16.66,6.4,1.43,14.95,1.91,21.37.44,5.75.81,13.42,1.15,19.18.36,9.03.51,18.06.44,27.09.09,6.43.09,15,0,21.43-.08,5.76-.41,13.44-.58,19.19-.48,9.06-1.17,18.11-2.07,27.14-.49,6.41-1.28,14.95-1.95,21.35-.61,5.73-1.63,13.36-2.33,19.08-1.32,9.03-2.85,18.04-4.58,27.03-1.08,6.35-2.64,14.81-3.91,21.13-1.13,5.67-2.86,13.19-4.08,18.84-2.16,8.95-4.52,17.87-7.09,26.76-1.66,6.26-4,14.56-5.85,20.77-1.66,5.57-4.07,12.94-5.82,18.49-2.24,6.62-4.58,13.18-7.03,19.69-2.17,6.08-5.19,14.14-7.53,20.15-2.1,5.38-5.1,12.47-7.29,17.82-3.63,8.48-7.45,16.86-11.45,25.13-2.7,5.8-6.4,13.49-9.27,19.21-2.56,5.13-6.17,11.87-8.82,16.95-4.35,8.04-8.88,15.98-13.59,23.8-3.2,5.5-7.56,12.76-10.92,18.16-3.01,4.84-7.19,11.19-10.27,15.98-5.04,7.57-10.26,15.02-15.65,22.35-3.67,5.16-8.66,11.96-12.47,17.02-3.42,4.53-8.14,10.45-11.63,14.93-5.7,7.05-11.58,13.97-17.62,20.77-4.11,4.79-9.67,11.1-13.91,15.78-3.8,4.2-9.02,9.65-12.89,13.79-4.59,4.7-9.25,9.32-13.98,13.85-4.34,4.31-10.21,9.98-14.66,14.18-3.99,3.75-9.43,8.62-13.47,12.32-4.55,4.04-10.69,9.36-15.34,13.28-4.16,3.51-10.2,7.66-14.05,11.51-6.66,5.32-13.44,10.48-20.34,15.48-4.81,3.59-11.29,8.31-16.19,11.78-4.39,3.11-10.33,7.11-14.76,10.15-4.97,3.32-11.65,7.65-16.7,10.85-4.52,2.86-10.63,6.52-15.18,9.31-5.1,3.03-11.95,7-17.13,9.91-4.63,2.6-10.88,5.93-15.54,8.47-7.24,3.84-14.59,7.51-22.03,11.02-5.25,2.56-12.29,5.9-17.59,8.33-4.74,2.18-11.13,4.94-15.9,7.05-5.32,2.28-12.45,5.23-17.83,7.38-4.8,1.92-11.25,4.34-16.07,6.2-8.49,3.11-19.88,7.08-28.43,10.02-7.73,2.54-18.09,5.76-25.89,8.07-6,1.77-14.08,3.87-20.11,5.52-5.32,1.37-12.43,3.12-17.78,4.37-4.74,1.11-11.1,2.45-15.86,3.5-7.69,1.59-17.98,3.58-25.72,4.96-5.92,1.06-13.85,2.22-19.78,3.17-7.6,1.08-17.75,2.39-25.38,3.27-5.81.67-13.59,1.33-19.41,1.91-7.42.6-17.32,1.27-24.75,1.68-5.64.31-13.17.56-18.81.72Z"/>
            </g>
          </g>
        </g>
        <g id="Logo" class="cls-5">
          <g id="Combined" class="cls-5">
            <g id="Couples">
              <path class="cls-3" d="m169.8,426.93c-27.78,65.25-65.23,81.95-70.64,67.77-11.9-31.23,52.07-175.36,85.46-163.39,2.87,1.03,11.84,6.18,6.51,29.12,10.83-3.64,25.16-8.86,36.15-12.02,14.39-58.77-11.95-71.56-35.24-61.87-3.27,1.63-6.47,3.29-9.6,5-65.49,42.35-135.4,248.08-104.16,255.41,6.34,1.49,15.3-2.56,19.13-4.29,3.21-1.75,6.5-3.46,9.85-5.13,14.9-8.51,66.06-42.51,98.85-122.53-10.9,3.54-25.57,7.87-36.3,11.92"/>
              <path class="cls-3" d="m309.01,448.86c79.14-6.66,121.11-124.18,85.11-155.1-11.77-10.11-46.94-15.74-78.67,16.24-28.09,28.31-46.99,80.62-45.11,108.49,2.22,33.03,29.65,31.03,38.67,30.38m147.73-87.96c-20.57,69.34-82.65,122.1-154.47,131.27-5.4.34-10.73.73-16.01,1.16l-4.43.06c-111.47-3.97-35.55-165.58,17.89-214.93,32.59-30.09,60.96-34.54,71.63-36.21,5.17-.43,10.4-.81,15.68-1.14l4.77.06c67.57,4.9,81.03,65.5,64.94,119.73"/>
              <path class="cls-3" d="m775.32,291.57c-19.18-4.62-44.69-11.04-63.97-15.27l-50.59,149.54c-28.72,77.16-111.54,35.13-120.32,16.44q-6.14-13.06,52.63-186.79c-20.27-2.7-40.12-4.87-59.52-6.53l-50.59,149.54c-8.72,29.21-26.86,89.99,74.81,109.8,6.7,1.13,13.44,2.31,20.22,3.55,31.78,4.96,90.16,7.63,124.13-30.29q14.33-16,73.19-189.99"/>
              <path class="cls-3" d="m900.56,456.46c21.64,8,38.78,11.48,52.1,2.49,9.94-6.71,19.73-28.34,11.82-45.64-5.41-11.83-17.23-20.48-39.53-28.93l-47.21-16.84-24.38,72.08,47.21,16.84m-70.96-149.76c148.86,47.05,158.23,54,178.01,79.08,35.68,45.22,12.69,103.63-20.22,120.94-32,16.83-71.39,1.95-84.33-2.94-19.06-6.98-44.42-16.48-63.62-23.07l-29.17,86.22c-20.45-6.95-41.14-13.55-62.03-19.75l81.35-240.48"/>
              <path class="cls-3" d="m1081.59,404.49c16.18,8.25,37.85,19.04,53.86,27.62l-66.31,196.02c38.84,20.94,75.48,43.01,109.41,65.88l-15.04,44.46c-56.18-36.18-81.82-52.69-163.26-93.51l81.35-240.48"/>
              <path class="cls-3" d="m1270.05,515.49c61.74,46.35,79.53,61,127.63,110.9l-15.04,44.46c-34.86-35.74-42.12-43.17-85.42-79.03l-17.43,51.53c42.68,35.93,49.25,41.45,79.31,72.44l-13.9,41.09c-36.58-36.46-42.21-42.07-79.31-72.44l-19.94,58.94c41.01,34.51,50.75,42.72,86.96,80.73l-15.04,44.46c-47.39-48.94-62.49-62.87-129.18-112.6l81.35-240.48"/>
              <path class="cls-3" d="m1427.83,932.94c20.44-64.32,8.48-102.2-4.19-142.32-21.01-66.52,10.22-70.35,20.51-50.34,4.63,9.01,6.97,18.51,7.15,29.06.2,11.73-6.72,22.3-5.57,34.18.99,10.22,9.02,22.23,11.97,32.07,23.7-72.06,11.88-113.61,2.73-131.96-1.99-3.58-4.07-7.17-6.24-10.76-25.24-33.61-58.41-13.48-66.98,40.63-5.57,35.18,6.32,68.55,14.18,90.64,32.4,91,5.8,114.46-8.35,95.72-4.56-6.04-26.56-38.57-11.35-85.63-7.59-9.77-17.41-23.03-25.39-32.48-20.87,63.05-.09,117.41,14.16,144.2,2.38,3.99,4.64,7.98,6.8,11.97,14.4,22.57,30.17,39.23,50.58-24.98"/>
            </g>
            <g id="Therapy">
              <path class="cls-3" d="m156.45,608.9c-27.46-36.5-53.39-70.98-67.1-124.27l-14.61,43.19c4.36,13.68,10.43,31.87,16.09,45.07l-64.41,190.41c5.39,10.07,12.21,23.7,18.16,33.45l64.41-190.41c9.54,13.95,22.43,32.44,32.85,45.75,2.55-7.53,5.95-17.57,8.49-25.11,1.83-5.42,4.28-12.66,6.12-18.08"/>
              <path class="cls-3" d="m316.22,751.4c-12.99-9.46-30.47-21.85-43.21-31.65l-30.33,89.65c-46.95-38.25-47.85-38.98-69.68-60.07l30.33-89.65c-9.63-9.95-22.72-22.99-31.97-33.29l-79.02,233.6c9.92,11.14,20.59,22.25,31.97,33.29l34.09-100.77c42.37,38.76,43.18,39.5,69.68,60.07l-34.09,100.77c12.94,9.53,30.04,22.45,43.21,31.65l79.02-233.6"/>
              <path class="cls-3" d="m536.05,874.19c-80.72-38.05-105.01-50.48-179.04-95.73l-79.02,233.6c72.96,44.23,94.85,56.44,181.94,97.03l14.61-43.19c-59.12-27.72-73.17-34.31-132.56-67.26l19.37-57.25c57.46,31.53,66.29,36.37,118.48,60.87l13.5-39.92c-60.94-29.31-70.31-33.82-118.48-60.87l16.94-50.06c56.23,30.85,67.93,37.27,129.66,65.96l14.61-43.19"/>
              <path class="cls-3" d="m601.47,1021.37l22.25-65.77q87.07,30.71,94.11,38.37c15.48,16.84,1.77,44.89-11.51,51.53-13.51,6.76-31.28,1.23-37.98-.85-22.58-7.33-44.9-15.11-66.88-23.29m124.77-75.37c-66.6-21.88-80.46-26.43-148.33-53.68l-79.02,233.6c17.78,7.05,41.4,16.67,59.31,23.37l30.88-91.28c20.06,7.47,40.41,14.6,60.98,21.36,21.85,7.45,31.62,15.57,34.85,28.98,6.67,27.68-11.32,52.71-8.59,79.97,20.95,6.07,42.09,11.74,63.37,16.99-3.63-8.43-4.32-19.22,3.43-46.93,6.72-24.02,15.92-56.91-20.39-77.35l.22-.65c68.19-3.61,87.61-74.3,45.59-111.61-16.12-14.31-33.8-20.03-42.3-22.77"/>
              <path class="cls-3" d="m887.01,1139.19c21.71-26.18,38.6-46.7,65.65-80.1.26.04.52.07.78.11,2.31,34.97,3.67,56.86,5.62,90.07-21.63-2.88-50.5-6.63-72.05-10.08m117.1-133.61c-20.45-2.35-41.35-5.25-62.66-8.71-51.45,59.6-89.05,102.17-188.75,211.59,16.35,3.89,32.77,7.53,49.25,10.9,5.16,1.06,10.3,2.08,15.41,3.07,12.62-14.9,22.59-26.66,40.26-47.8,31.11,4.92,72.69,10.83,103.96,14.55.41,8.3,1.5,30.35,2.53,53.86,20.09,1.67,39.68,2.79,58.75,3.38-5.14-81.62-10.75-153.65-18.77-240.85"/>
              <path class="cls-3" d="m1138.6,1122.24l23.68-70.01q59.88-4.25,66.1,1.11c10.65,9.18-.63,36.16-10.08,47.21-9.71,11.35-22.05,17.02-41.26,18.97-12.47,1.2-25.29,2.11-38.44,2.73m88.69-114.03c-55.03,4.66-60.78,5.15-103.85,5.05l-79.02,233.6c17.97.17,35.43-.15,52.35-.95l28.33-83.76c70.59-5.27,85.28-6.36,114-35.9,28.02-28.82,52.59-91.32,28.85-111.01-11.8-9.79-29.16-8.13-40.65-7.04"/>
              <path class="cls-3" d="m1441.12,927.03c-8.12,6.7-18.8,15.85-27.45,21.85-19.82,36.59-36.4,66.35-62.51,110.22-1.01-24.79-2.18-45.34-5.18-77.01-13.62,4.85-28.1,9.16-43.39,12.92,5.27,33.81,10.66,72.02,14.47,122.24l-30.77,90.95c11.39-4.79,22.07-10.01,32-15.64l30.33-89.65c30.29-53.14,57.61-103.39,92.49-175.88"/>
            </g>
          </g>
        </g>
      </g>
    </g>
  </g>
</svg>